<?xml version="1.0" encoding="UTF-8"?>
<svg xmlns="http://www.w3.org/2000/svg" xmlns:xlink="http://www.w3.org/1999/xlink" width="510px" height="392px" viewBox="0 0 510 392" version="1.1">
<defs>
<g>
<symbol overflow="visible" id="glyph0-0">
<path style="stroke:none;" d="M 0.453125 1.59375 L 0.453125 -6.359375 L 4.953125 -6.359375 L 4.953125 1.59375 Z M 0.953125 1.09375 L 4.453125 1.09375 L 4.453125 -5.84375 L 0.953125 -5.84375 Z M 0.953125 1.09375 "/>
</symbol>
<symbol overflow="visible" id="glyph0-1">
<path style="stroke:none;" d="M 5.796875 -6.0625 L 5.796875 -5.125 C 5.492188 -5.40625 5.171875 -5.613281 4.828125 -5.75 C 4.492188 -5.882812 4.140625 -5.953125 3.765625 -5.953125 C 3.015625 -5.953125 2.4375 -5.722656 2.03125 -5.265625 C 1.632812 -4.804688 1.4375 -4.144531 1.4375 -3.28125 C 1.4375 -2.414062 1.632812 -1.753906 2.03125 -1.296875 C 2.4375 -0.835938 3.015625 -0.609375 3.765625 -0.609375 C 4.140625 -0.609375 4.492188 -0.675781 4.828125 -0.8125 C 5.171875 -0.945312 5.492188 -1.15625 5.796875 -1.4375 L 5.796875 -0.5 C 5.484375 -0.289062 5.15625 -0.132812 4.8125 -0.03125 C 4.46875 0.0703125 4.097656 0.125 3.703125 0.125 C 2.710938 0.125 1.929688 -0.175781 1.359375 -0.78125 C 0.785156 -1.394531 0.5 -2.226562 0.5 -3.28125 C 0.5 -4.332031 0.785156 -5.160156 1.359375 -5.765625 C 1.929688 -6.378906 2.710938 -6.6875 3.703125 -6.6875 C 4.097656 -6.6875 4.46875 -6.632812 4.8125 -6.53125 C 5.164062 -6.425781 5.492188 -6.269531 5.796875 -6.0625 Z M 5.796875 -6.0625 "/>
</symbol>
<symbol overflow="visible" id="glyph0-2">
<path style="stroke:none;" d="M 0.84375 -6.84375 L 1.65625 -6.84375 L 1.65625 0 L 0.84375 0 Z M 0.84375 -6.84375 "/>
</symbol>
<symbol overflow="visible" id="glyph0-3">
<path style="stroke:none;" d="M 0.84375 -4.9375 L 1.65625 -4.9375 L 1.65625 0 L 0.84375 0 Z M 0.84375 -6.84375 L 1.65625 -6.84375 L 1.65625 -5.828125 L 0.84375 -5.828125 Z M 0.84375 -6.84375 "/>
</symbol>
<symbol overflow="visible" id="glyph0-4">
<path style="stroke:none;" d="M 5.0625 -2.671875 L 5.0625 -2.265625 L 1.34375 -2.265625 C 1.375 -1.710938 1.539062 -1.289062 1.84375 -1 C 2.144531 -0.707031 2.5625 -0.5625 3.09375 -0.5625 C 3.40625 -0.5625 3.707031 -0.597656 4 -0.671875 C 4.289062 -0.742188 4.582031 -0.859375 4.875 -1.015625 L 4.875 -0.25 C 4.582031 -0.125 4.28125 -0.03125 3.96875 0.03125 C 3.664062 0.09375 3.359375 0.125 3.046875 0.125 C 2.265625 0.125 1.644531 -0.101562 1.1875 -0.5625 C 0.726562 -1.019531 0.5 -1.640625 0.5 -2.421875 C 0.5 -3.222656 0.710938 -3.859375 1.140625 -4.328125 C 1.578125 -4.804688 2.164062 -5.046875 2.90625 -5.046875 C 3.570312 -5.046875 4.097656 -4.832031 4.484375 -4.40625 C 4.867188 -3.976562 5.0625 -3.398438 5.0625 -2.671875 Z M 4.25 -2.90625 C 4.238281 -3.34375 4.113281 -3.691406 3.875 -3.953125 C 3.632812 -4.222656 3.316406 -4.359375 2.921875 -4.359375 C 2.460938 -4.359375 2.097656 -4.226562 1.828125 -3.96875 C 1.554688 -3.71875 1.398438 -3.363281 1.359375 -2.90625 Z M 4.25 -2.90625 "/>
</symbol>
<symbol overflow="visible" id="glyph0-5">
<path style="stroke:none;" d="M 4.9375 -2.96875 L 4.9375 0 L 4.125 0 L 4.125 -2.953125 C 4.125 -3.421875 4.035156 -3.769531 3.859375 -4 C 3.679688 -4.226562 3.410156 -4.34375 3.046875 -4.34375 C 2.609375 -4.34375 2.257812 -4.203125 2 -3.921875 C 1.75 -3.648438 1.625 -3.269531 1.625 -2.78125 L 1.625 0 L 0.8125 0 L 0.8125 -4.9375 L 1.625 -4.9375 L 1.625 -4.171875 C 1.820312 -4.460938 2.050781 -4.679688 2.3125 -4.828125 C 2.570312 -4.972656 2.875 -5.046875 3.21875 -5.046875 C 3.78125 -5.046875 4.207031 -4.867188 4.5 -4.515625 C 4.789062 -4.171875 4.9375 -3.65625 4.9375 -2.96875 Z M 4.9375 -2.96875 "/>
</symbol>
<symbol overflow="visible" id="glyph0-6">
<path style="stroke:none;" d="M 1.640625 -6.328125 L 1.640625 -4.9375 L 3.3125 -4.9375 L 3.3125 -4.296875 L 1.640625 -4.296875 L 1.640625 -1.625 C 1.640625 -1.21875 1.695312 -0.957031 1.8125 -0.84375 C 1.925781 -0.726562 2.148438 -0.671875 2.484375 -0.671875 L 3.3125 -0.671875 L 3.3125 0 L 2.484375 0 C 1.859375 0 1.425781 -0.113281 1.1875 -0.34375 C 0.945312 -0.582031 0.828125 -1.007812 0.828125 -1.625 L 0.828125 -4.296875 L 0.234375 -4.296875 L 0.234375 -4.9375 L 0.828125 -4.9375 L 0.828125 -6.328125 Z M 1.640625 -6.328125 "/>
</symbol>
<symbol overflow="visible" id="glyph0-7">
<path style="stroke:none;" d="M 3.984375 -4.78125 L 3.984375 -4.015625 C 3.753906 -4.128906 3.515625 -4.21875 3.265625 -4.28125 C 3.023438 -4.34375 2.773438 -4.375 2.515625 -4.375 C 2.109375 -4.375 1.804688 -4.3125 1.609375 -4.1875 C 1.410156 -4.0625 1.3125 -3.875 1.3125 -3.625 C 1.3125 -3.4375 1.378906 -3.289062 1.515625 -3.1875 C 1.660156 -3.082031 1.953125 -2.984375 2.390625 -2.890625 L 2.65625 -2.828125 C 3.238281 -2.703125 3.648438 -2.523438 3.890625 -2.296875 C 4.128906 -2.078125 4.25 -1.765625 4.25 -1.359375 C 4.25 -0.898438 4.066406 -0.535156 3.703125 -0.265625 C 3.347656 -0.00390625 2.851562 0.125 2.21875 0.125 C 1.945312 0.125 1.671875 0.0976562 1.390625 0.046875 C 1.109375 -0.00390625 0.804688 -0.0820312 0.484375 -0.1875 L 0.484375 -1.015625 C 0.785156 -0.859375 1.082031 -0.738281 1.375 -0.65625 C 1.664062 -0.582031 1.953125 -0.546875 2.234375 -0.546875 C 2.609375 -0.546875 2.898438 -0.609375 3.109375 -0.734375 C 3.316406 -0.867188 3.421875 -1.054688 3.421875 -1.296875 C 3.421875 -1.515625 3.34375 -1.679688 3.1875 -1.796875 C 3.039062 -1.921875 2.71875 -2.035156 2.21875 -2.140625 L 1.9375 -2.203125 C 1.4375 -2.316406 1.070312 -2.484375 0.84375 -2.703125 C 0.625 -2.921875 0.515625 -3.21875 0.515625 -3.59375 C 0.515625 -4.0625 0.675781 -4.421875 1 -4.671875 C 1.332031 -4.921875 1.800781 -5.046875 2.40625 -5.046875 C 2.707031 -5.046875 2.988281 -5.023438 3.25 -4.984375 C 3.519531 -4.941406 3.765625 -4.875 3.984375 -4.78125 Z M 3.984375 -4.78125 "/>
</symbol>
<symbol overflow="visible" id="glyph0-8">
<path style="stroke:none;" d="M 5.359375 -0.9375 L 5.359375 -2.703125 L 3.90625 -2.703125 L 3.90625 -3.4375 L 6.234375 -3.4375 L 6.234375 -0.609375 C 5.890625 -0.367188 5.507812 -0.1875 5.09375 -0.0625 C 4.6875 0.0625 4.25 0.125 3.78125 0.125 C 2.75 0.125 1.941406 -0.171875 1.359375 -0.765625 C 0.785156 -1.367188 0.5 -2.207031 0.5 -3.28125 C 0.5 -4.351562 0.785156 -5.1875 1.359375 -5.78125 C 1.941406 -6.382812 2.75 -6.6875 3.78125 -6.6875 C 4.207031 -6.6875 4.613281 -6.632812 5 -6.53125 C 5.382812 -6.425781 5.738281 -6.269531 6.0625 -6.0625 L 6.0625 -5.125 C 5.738281 -5.394531 5.390625 -5.597656 5.015625 -5.734375 C 4.648438 -5.878906 4.265625 -5.953125 3.859375 -5.953125 C 3.054688 -5.953125 2.453125 -5.726562 2.046875 -5.28125 C 1.640625 -4.832031 1.4375 -4.164062 1.4375 -3.28125 C 1.4375 -2.394531 1.640625 -1.726562 2.046875 -1.28125 C 2.453125 -0.832031 3.054688 -0.609375 3.859375 -0.609375 C 4.171875 -0.609375 4.445312 -0.632812 4.6875 -0.6875 C 4.9375 -0.738281 5.160156 -0.820312 5.359375 -0.9375 Z M 5.359375 -0.9375 "/>
</symbol>
<symbol overflow="visible" id="glyph0-9">
<path style="stroke:none;" d="M 3.703125 -4.171875 C 3.609375 -4.222656 3.507812 -4.257812 3.40625 -4.28125 C 3.300781 -4.3125 3.179688 -4.328125 3.046875 -4.328125 C 2.585938 -4.328125 2.234375 -4.175781 1.984375 -3.875 C 1.742188 -3.582031 1.625 -3.15625 1.625 -2.59375 L 1.625 0 L 0.8125 0 L 0.8125 -4.9375 L 1.625 -4.9375 L 1.625 -4.171875 C 1.800781 -4.460938 2.023438 -4.679688 2.296875 -4.828125 C 2.566406 -4.972656 2.894531 -5.046875 3.28125 -5.046875 C 3.34375 -5.046875 3.40625 -5.039062 3.46875 -5.03125 C 3.539062 -5.03125 3.617188 -5.019531 3.703125 -5 Z M 3.703125 -4.171875 "/>
</symbol>
<symbol overflow="visible" id="glyph0-10">
<path style="stroke:none;" d="M 3.078125 -2.484375 C 2.429688 -2.484375 1.976562 -2.40625 1.71875 -2.25 C 1.46875 -2.101562 1.34375 -1.847656 1.34375 -1.484375 C 1.34375 -1.203125 1.4375 -0.972656 1.625 -0.796875 C 1.820312 -0.628906 2.082031 -0.546875 2.40625 -0.546875 C 2.851562 -0.546875 3.210938 -0.703125 3.484375 -1.015625 C 3.753906 -1.335938 3.890625 -1.765625 3.890625 -2.296875 L 3.890625 -2.484375 Z M 4.703125 -2.8125 L 4.703125 0 L 3.890625 0 L 3.890625 -0.75 C 3.703125 -0.445312 3.46875 -0.222656 3.1875 -0.078125 C 2.914062 0.0546875 2.582031 0.125 2.1875 0.125 C 1.6875 0.125 1.285156 -0.015625 0.984375 -0.296875 C 0.691406 -0.578125 0.546875 -0.957031 0.546875 -1.4375 C 0.546875 -1.988281 0.726562 -2.40625 1.09375 -2.6875 C 1.46875 -2.96875 2.019531 -3.109375 2.75 -3.109375 L 3.890625 -3.109375 L 3.890625 -3.1875 C 3.890625 -3.5625 3.765625 -3.847656 3.515625 -4.046875 C 3.273438 -4.253906 2.929688 -4.359375 2.484375 -4.359375 C 2.203125 -4.359375 1.925781 -4.320312 1.65625 -4.25 C 1.394531 -4.1875 1.144531 -4.085938 0.90625 -3.953125 L 0.90625 -4.703125 C 1.195312 -4.816406 1.484375 -4.898438 1.765625 -4.953125 C 2.046875 -5.015625 2.316406 -5.046875 2.578125 -5.046875 C 3.285156 -5.046875 3.816406 -4.859375 4.171875 -4.484375 C 4.523438 -4.117188 4.703125 -3.5625 4.703125 -2.8125 Z M 4.703125 -2.8125 "/>
</symbol>
<symbol overflow="visible" id="glyph0-11">
<path style="stroke:none;" d="M 4.09375 -4.1875 L 4.09375 -6.84375 L 4.890625 -6.84375 L 4.890625 0 L 4.09375 0 L 4.09375 -0.734375 C 3.914062 -0.441406 3.695312 -0.222656 3.4375 -0.078125 C 3.175781 0.0546875 2.867188 0.125 2.515625 0.125 C 1.921875 0.125 1.4375 -0.109375 1.0625 -0.578125 C 0.6875 -1.054688 0.5 -1.679688 0.5 -2.453125 C 0.5 -3.234375 0.6875 -3.859375 1.0625 -4.328125 C 1.4375 -4.804688 1.921875 -5.046875 2.515625 -5.046875 C 2.867188 -5.046875 3.175781 -4.972656 3.4375 -4.828125 C 3.695312 -4.691406 3.914062 -4.476562 4.09375 -4.1875 Z M 1.328125 -2.453125 C 1.328125 -1.859375 1.445312 -1.390625 1.6875 -1.046875 C 1.9375 -0.710938 2.273438 -0.546875 2.703125 -0.546875 C 3.128906 -0.546875 3.46875 -0.710938 3.71875 -1.046875 C 3.96875 -1.390625 4.09375 -1.859375 4.09375 -2.453125 C 4.09375 -3.054688 3.96875 -3.523438 3.71875 -3.859375 C 3.46875 -4.203125 3.128906 -4.375 2.703125 -4.375 C 2.273438 -4.375 1.9375 -4.203125 1.6875 -3.859375 C 1.445312 -3.523438 1.328125 -3.054688 1.328125 -2.453125 Z M 1.328125 -2.453125 "/>
</symbol>
<symbol overflow="visible" id="glyph0-12">
<path style="stroke:none;" d=""/>
</symbol>
<symbol overflow="visible" id="glyph0-13">
<path style="stroke:none;" d="M 0.765625 -1.953125 L 0.765625 -4.9375 L 1.578125 -4.9375 L 1.578125 -1.984375 C 1.578125 -1.515625 1.664062 -1.160156 1.84375 -0.921875 C 2.03125 -0.691406 2.300781 -0.578125 2.65625 -0.578125 C 3.09375 -0.578125 3.4375 -0.710938 3.6875 -0.984375 C 3.945312 -1.265625 4.078125 -1.648438 4.078125 -2.140625 L 4.078125 -4.9375 L 4.890625 -4.9375 L 4.890625 0 L 4.078125 0 L 4.078125 -0.75 C 3.878906 -0.457031 3.648438 -0.238281 3.390625 -0.09375 C 3.128906 0.0507812 2.828125 0.125 2.484375 0.125 C 1.921875 0.125 1.492188 -0.046875 1.203125 -0.390625 C 0.910156 -0.742188 0.765625 -1.265625 0.765625 -1.953125 Z M 2.796875 -5.046875 Z M 2.796875 -5.046875 "/>
</symbol>
<symbol overflow="visible" id="glyph0-14">
<path style="stroke:none;" d="M 4.375 -2.453125 C 4.375 -3.054688 4.25 -3.523438 4 -3.859375 C 3.757812 -4.203125 3.425781 -4.375 3 -4.375 C 2.570312 -4.375 2.234375 -4.203125 1.984375 -3.859375 C 1.742188 -3.523438 1.625 -3.054688 1.625 -2.453125 C 1.625 -1.859375 1.742188 -1.390625 1.984375 -1.046875 C 2.234375 -0.710938 2.570312 -0.546875 3 -0.546875 C 3.425781 -0.546875 3.757812 -0.710938 4 -1.046875 C 4.25 -1.390625 4.375 -1.859375 4.375 -2.453125 Z M 1.625 -4.1875 C 1.800781 -4.476562 2.015625 -4.691406 2.265625 -4.828125 C 2.523438 -4.972656 2.835938 -5.046875 3.203125 -5.046875 C 3.796875 -5.046875 4.28125 -4.804688 4.65625 -4.328125 C 5.03125 -3.859375 5.21875 -3.234375 5.21875 -2.453125 C 5.21875 -1.679688 5.03125 -1.054688 4.65625 -0.578125 C 4.28125 -0.109375 3.796875 0.125 3.203125 0.125 C 2.835938 0.125 2.523438 0.0546875 2.265625 -0.078125 C 2.015625 -0.222656 1.800781 -0.441406 1.625 -0.734375 L 1.625 0 L 0.8125 0 L 0.8125 -6.84375 L 1.625 -6.84375 Z M 1.625 -4.1875 "/>
</symbol>
<symbol overflow="visible" id="glyph0-15">
<path style="stroke:none;" d="M 4.390625 -4.734375 L 4.390625 -3.984375 C 4.160156 -4.109375 3.929688 -4.203125 3.703125 -4.265625 C 3.472656 -4.328125 3.238281 -4.359375 3 -4.359375 C 2.476562 -4.359375 2.070312 -4.191406 1.78125 -3.859375 C 1.488281 -3.523438 1.34375 -3.054688 1.34375 -2.453125 C 1.34375 -1.859375 1.488281 -1.394531 1.78125 -1.0625 C 2.070312 -0.726562 2.476562 -0.5625 3 -0.5625 C 3.238281 -0.5625 3.472656 -0.59375 3.703125 -0.65625 C 3.929688 -0.71875 4.160156 -0.8125 4.390625 -0.9375 L 4.390625 -0.1875 C 4.160156 -0.0820312 3.925781 -0.00390625 3.6875 0.046875 C 3.445312 0.0976562 3.191406 0.125 2.921875 0.125 C 2.179688 0.125 1.59375 -0.101562 1.15625 -0.5625 C 0.71875 -1.03125 0.5 -1.660156 0.5 -2.453125 C 0.5 -3.265625 0.71875 -3.898438 1.15625 -4.359375 C 1.59375 -4.816406 2.195312 -5.046875 2.96875 -5.046875 C 3.21875 -5.046875 3.460938 -5.019531 3.703125 -4.96875 C 3.941406 -4.914062 4.171875 -4.835938 4.390625 -4.734375 Z M 4.390625 -4.734375 "/>
</symbol>
<symbol overflow="visible" id="glyph0-16">
<path style="stroke:none;" d="M 2.75 -4.359375 C 2.320312 -4.359375 1.976562 -4.1875 1.71875 -3.84375 C 1.46875 -3.507812 1.34375 -3.046875 1.34375 -2.453125 C 1.34375 -1.867188 1.46875 -1.40625 1.71875 -1.0625 C 1.96875 -0.726562 2.3125 -0.5625 2.75 -0.5625 C 3.1875 -0.5625 3.53125 -0.726562 3.78125 -1.0625 C 4.03125 -1.40625 4.15625 -1.867188 4.15625 -2.453125 C 4.15625 -3.046875 4.03125 -3.507812 3.78125 -3.84375 C 3.53125 -4.1875 3.1875 -4.359375 2.75 -4.359375 Z M 2.75 -5.046875 C 3.457031 -5.046875 4.007812 -4.816406 4.40625 -4.359375 C 4.8125 -3.898438 5.015625 -3.265625 5.015625 -2.453125 C 5.015625 -1.648438 4.8125 -1.019531 4.40625 -0.5625 C 4.007812 -0.101562 3.457031 0.125 2.75 0.125 C 2.050781 0.125 1.5 -0.101562 1.09375 -0.5625 C 0.695312 -1.019531 0.5 -1.648438 0.5 -2.453125 C 0.5 -3.265625 0.695312 -3.898438 1.09375 -4.359375 C 1.5 -4.816406 2.050781 -5.046875 2.75 -5.046875 Z M 2.75 -5.046875 "/>
</symbol>
<symbol overflow="visible" id="glyph0-17">
<path style="stroke:none;" d="M 4.6875 -3.984375 C 4.882812 -4.347656 5.125 -4.613281 5.40625 -4.78125 C 5.6875 -4.957031 6.019531 -5.046875 6.40625 -5.046875 C 6.914062 -5.046875 7.304688 -4.863281 7.578125 -4.5 C 7.859375 -4.144531 8 -3.632812 8 -2.96875 L 8 0 L 7.1875 0 L 7.1875 -2.953125 C 7.1875 -3.421875 7.101562 -3.769531 6.9375 -4 C 6.769531 -4.226562 6.515625 -4.34375 6.171875 -4.34375 C 5.753906 -4.34375 5.421875 -4.203125 5.171875 -3.921875 C 4.929688 -3.648438 4.8125 -3.269531 4.8125 -2.78125 L 4.8125 0 L 4 0 L 4 -2.953125 C 4 -3.421875 3.914062 -3.769531 3.75 -4 C 3.582031 -4.226562 3.328125 -4.34375 2.984375 -4.34375 C 2.566406 -4.34375 2.234375 -4.203125 1.984375 -3.921875 C 1.742188 -3.640625 1.625 -3.257812 1.625 -2.78125 L 1.625 0 L 0.8125 0 L 0.8125 -4.9375 L 1.625 -4.9375 L 1.625 -4.171875 C 1.8125 -4.472656 2.035156 -4.691406 2.296875 -4.828125 C 2.554688 -4.972656 2.863281 -5.046875 3.21875 -5.046875 C 3.570312 -5.046875 3.875 -4.953125 4.125 -4.765625 C 4.375 -4.585938 4.5625 -4.328125 4.6875 -3.984375 Z M 4.6875 -3.984375 "/>
</symbol>
<symbol overflow="visible" id="glyph0-18">
<path style="stroke:none;" d="M 4.8125 -6.359375 L 4.8125 -5.484375 C 4.476562 -5.648438 4.160156 -5.769531 3.859375 -5.84375 C 3.566406 -5.925781 3.28125 -5.96875 3 -5.96875 C 2.507812 -5.96875 2.132812 -5.875 1.875 -5.6875 C 1.613281 -5.5 1.484375 -5.234375 1.484375 -4.890625 C 1.484375 -4.597656 1.570312 -4.375 1.75 -4.21875 C 1.925781 -4.070312 2.253906 -3.957031 2.734375 -3.875 L 3.28125 -3.765625 C 3.9375 -3.628906 4.421875 -3.398438 4.734375 -3.078125 C 5.054688 -2.765625 5.21875 -2.34375 5.21875 -1.8125 C 5.21875 -1.175781 5.003906 -0.691406 4.578125 -0.359375 C 4.148438 -0.0351562 3.523438 0.125 2.703125 0.125 C 2.390625 0.125 2.054688 0.0859375 1.703125 0.015625 C 1.359375 -0.046875 1 -0.148438 0.625 -0.296875 L 0.625 -1.203125 C 0.976562 -1.003906 1.328125 -0.851562 1.671875 -0.75 C 2.023438 -0.644531 2.367188 -0.59375 2.703125 -0.59375 C 3.203125 -0.59375 3.585938 -0.691406 3.859375 -0.890625 C 4.140625 -1.085938 4.28125 -1.375 4.28125 -1.75 C 4.28125 -2.070312 4.179688 -2.320312 3.984375 -2.5 C 3.785156 -2.6875 3.460938 -2.828125 3.015625 -2.921875 L 2.46875 -3.015625 C 1.8125 -3.148438 1.332031 -3.359375 1.03125 -3.640625 C 0.738281 -3.921875 0.59375 -4.3125 0.59375 -4.8125 C 0.59375 -5.394531 0.796875 -5.851562 1.203125 -6.1875 C 1.609375 -6.519531 2.171875 -6.6875 2.890625 -6.6875 C 3.203125 -6.6875 3.515625 -6.660156 3.828125 -6.609375 C 4.148438 -6.554688 4.476562 -6.472656 4.8125 -6.359375 Z M 4.8125 -6.359375 "/>
</symbol>
<symbol overflow="visible" id="glyph0-19">
<path style="stroke:none;" d="M 0.890625 -6.578125 L 1.765625 -6.578125 L 1.765625 -3.875 L 5 -3.875 L 5 -6.578125 L 5.890625 -6.578125 L 5.890625 0 L 5 0 L 5 -3.125 L 1.765625 -3.125 L 1.765625 0 L 0.890625 0 Z M 0.890625 -6.578125 "/>
</symbol>
<symbol overflow="visible" id="glyph0-20">
<path style="stroke:none;" d="M -0.03125 -6.578125 L 5.53125 -6.578125 L 5.53125 -5.828125 L 3.1875 -5.828125 L 3.1875 0 L 2.296875 0 L 2.296875 -5.828125 L -0.03125 -5.828125 Z M -0.03125 -6.578125 "/>
</symbol>
<symbol overflow="visible" id="glyph0-21">
<path style="stroke:none;" d="M 1.765625 -5.84375 L 1.765625 -3.375 L 2.890625 -3.375 C 3.296875 -3.375 3.613281 -3.476562 3.84375 -3.6875 C 4.070312 -3.90625 4.1875 -4.210938 4.1875 -4.609375 C 4.1875 -5.003906 4.070312 -5.304688 3.84375 -5.515625 C 3.613281 -5.734375 3.296875 -5.84375 2.890625 -5.84375 Z M 0.890625 -6.578125 L 2.890625 -6.578125 C 3.617188 -6.578125 4.171875 -6.410156 4.546875 -6.078125 C 4.929688 -5.742188 5.125 -5.253906 5.125 -4.609375 C 5.125 -3.960938 4.929688 -3.472656 4.546875 -3.140625 C 4.171875 -2.804688 3.617188 -2.640625 2.890625 -2.640625 L 1.765625 -2.640625 L 1.765625 0 L 0.890625 0 Z M 0.890625 -6.578125 "/>
</symbol>
<symbol overflow="visible" id="glyph0-22">
<path style="stroke:none;" d="M 3.078125 -5.703125 L 1.875 -2.421875 L 4.28125 -2.421875 Z M 2.578125 -6.578125 L 3.578125 -6.578125 L 6.078125 0 L 5.15625 0 L 4.5625 -1.6875 L 1.609375 -1.6875 L 1 0 L 0.078125 0 Z M 2.578125 -6.578125 "/>
</symbol>
<symbol overflow="visible" id="glyph0-23">
<path style="stroke:none;" d="M 0.890625 -6.578125 L 1.765625 -6.578125 L 1.765625 0 L 0.890625 0 Z M 0.890625 -6.578125 "/>
</symbol>
<symbol overflow="visible" id="glyph0-24">
<path style="stroke:none;" d="M 4.9375 -2.96875 L 4.9375 0 L 4.125 0 L 4.125 -2.953125 C 4.125 -3.421875 4.035156 -3.769531 3.859375 -4 C 3.679688 -4.226562 3.410156 -4.34375 3.046875 -4.34375 C 2.609375 -4.34375 2.257812 -4.203125 2 -3.921875 C 1.75 -3.648438 1.625 -3.269531 1.625 -2.78125 L 1.625 0 L 0.8125 0 L 0.8125 -6.84375 L 1.625 -6.84375 L 1.625 -4.171875 C 1.820312 -4.460938 2.050781 -4.679688 2.3125 -4.828125 C 2.570312 -4.972656 2.875 -5.046875 3.21875 -5.046875 C 3.78125 -5.046875 4.207031 -4.867188 4.5 -4.515625 C 4.789062 -4.171875 4.9375 -3.65625 4.9375 -2.96875 Z M 4.9375 -2.96875 "/>
</symbol>
<symbol overflow="visible" id="glyph0-25">
<path style="stroke:none;" d="M 0.4375 -2.828125 L 2.8125 -2.828125 L 2.8125 -2.109375 L 0.4375 -2.109375 Z M 0.4375 -2.828125 "/>
</symbol>
<symbol overflow="visible" id="glyph0-26">
<path style="stroke:none;" d="M 1.625 -0.734375 L 1.625 1.875 L 0.8125 1.875 L 0.8125 -4.9375 L 1.625 -4.9375 L 1.625 -4.1875 C 1.800781 -4.476562 2.015625 -4.691406 2.265625 -4.828125 C 2.523438 -4.972656 2.835938 -5.046875 3.203125 -5.046875 C 3.796875 -5.046875 4.28125 -4.804688 4.65625 -4.328125 C 5.03125 -3.859375 5.21875 -3.234375 5.21875 -2.453125 C 5.21875 -1.679688 5.03125 -1.054688 4.65625 -0.578125 C 4.28125 -0.109375 3.796875 0.125 3.203125 0.125 C 2.835938 0.125 2.523438 0.0546875 2.265625 -0.078125 C 2.015625 -0.222656 1.800781 -0.441406 1.625 -0.734375 Z M 4.375 -2.453125 C 4.375 -3.054688 4.25 -3.523438 4 -3.859375 C 3.757812 -4.203125 3.425781 -4.375 3 -4.375 C 2.570312 -4.375 2.234375 -4.203125 1.984375 -3.859375 C 1.742188 -3.523438 1.625 -3.054688 1.625 -2.453125 C 1.625 -1.859375 1.742188 -1.390625 1.984375 -1.046875 C 2.234375 -0.710938 2.570312 -0.546875 3 -0.546875 C 3.425781 -0.546875 3.757812 -0.710938 4 -1.046875 C 4.25 -1.390625 4.375 -1.859375 4.375 -2.453125 Z M 4.375 -2.453125 "/>
</symbol>
<symbol overflow="visible" id="glyph0-27">
<path style="stroke:none;" d="M 4 -3.078125 C 4.1875 -3.015625 4.367188 -2.875 4.546875 -2.65625 C 4.734375 -2.445312 4.914062 -2.160156 5.09375 -1.796875 L 6 0 L 5.046875 0 L 4.203125 -1.6875 C 3.984375 -2.125 3.769531 -2.414062 3.5625 -2.5625 C 3.363281 -2.707031 3.085938 -2.78125 2.734375 -2.78125 L 1.765625 -2.78125 L 1.765625 0 L 0.890625 0 L 0.890625 -6.578125 L 2.890625 -6.578125 C 3.640625 -6.578125 4.195312 -6.414062 4.5625 -6.09375 C 4.9375 -5.78125 5.125 -5.304688 5.125 -4.671875 C 5.125 -4.265625 5.023438 -3.921875 4.828125 -3.640625 C 4.640625 -3.367188 4.363281 -3.179688 4 -3.078125 Z M 1.765625 -5.84375 L 1.765625 -3.515625 L 2.890625 -3.515625 C 3.316406 -3.515625 3.640625 -3.613281 3.859375 -3.8125 C 4.078125 -4.007812 4.1875 -4.296875 4.1875 -4.671875 C 4.1875 -5.054688 4.078125 -5.347656 3.859375 -5.546875 C 3.640625 -5.742188 3.316406 -5.84375 2.890625 -5.84375 Z M 1.765625 -5.84375 "/>
</symbol>
<symbol overflow="visible" id="glyph0-28">
<path style="stroke:none;" d="M 1.765625 -3.140625 L 1.765625 -0.734375 L 3.1875 -0.734375 C 3.664062 -0.734375 4.019531 -0.832031 4.25 -1.03125 C 4.476562 -1.226562 4.59375 -1.53125 4.59375 -1.9375 C 4.59375 -2.34375 4.476562 -2.644531 4.25 -2.84375 C 4.019531 -3.039062 3.664062 -3.140625 3.1875 -3.140625 Z M 1.765625 -5.84375 L 1.765625 -3.859375 L 3.078125 -3.859375 C 3.515625 -3.859375 3.835938 -3.9375 4.046875 -4.09375 C 4.265625 -4.257812 4.375 -4.507812 4.375 -4.84375 C 4.375 -5.175781 4.265625 -5.425781 4.046875 -5.59375 C 3.835938 -5.757812 3.515625 -5.84375 3.078125 -5.84375 Z M 0.890625 -6.578125 L 3.15625 -6.578125 C 3.832031 -6.578125 4.351562 -6.4375 4.71875 -6.15625 C 5.082031 -5.875 5.265625 -5.472656 5.265625 -4.953125 C 5.265625 -4.546875 5.171875 -4.222656 4.984375 -3.984375 C 4.796875 -3.742188 4.519531 -3.597656 4.15625 -3.546875 C 4.59375 -3.453125 4.929688 -3.253906 5.171875 -2.953125 C 5.410156 -2.660156 5.53125 -2.289062 5.53125 -1.84375 C 5.53125 -1.25 5.332031 -0.789062 4.9375 -0.46875 C 4.539062 -0.15625 3.972656 0 3.234375 0 L 0.890625 0 Z M 0.890625 -6.578125 "/>
</symbol>
<symbol overflow="visible" id="glyph0-29">
<path style="stroke:none;" d="M 4.09375 -2.515625 C 4.09375 -3.109375 3.96875 -3.566406 3.71875 -3.890625 C 3.476562 -4.210938 3.140625 -4.375 2.703125 -4.375 C 2.273438 -4.375 1.9375 -4.210938 1.6875 -3.890625 C 1.445312 -3.566406 1.328125 -3.109375 1.328125 -2.515625 C 1.328125 -1.929688 1.445312 -1.476562 1.6875 -1.15625 C 1.9375 -0.832031 2.273438 -0.671875 2.703125 -0.671875 C 3.140625 -0.671875 3.476562 -0.832031 3.71875 -1.15625 C 3.96875 -1.476562 4.09375 -1.929688 4.09375 -2.515625 Z M 4.890625 -0.609375 C 4.890625 0.222656 4.703125 0.84375 4.328125 1.25 C 3.960938 1.664062 3.394531 1.875 2.625 1.875 C 2.34375 1.875 2.078125 1.851562 1.828125 1.8125 C 1.578125 1.769531 1.332031 1.703125 1.09375 1.609375 L 1.09375 0.828125 C 1.332031 0.953125 1.566406 1.046875 1.796875 1.109375 C 2.023438 1.171875 2.257812 1.203125 2.5 1.203125 C 3.03125 1.203125 3.425781 1.0625 3.6875 0.78125 C 3.957031 0.507812 4.09375 0.09375 4.09375 -0.46875 L 4.09375 -0.875 C 3.925781 -0.582031 3.707031 -0.363281 3.4375 -0.21875 C 3.175781 -0.0703125 2.867188 0 2.515625 0 C 1.910156 0 1.421875 -0.226562 1.046875 -0.6875 C 0.679688 -1.144531 0.5 -1.753906 0.5 -2.515625 C 0.5 -3.285156 0.679688 -3.898438 1.046875 -4.359375 C 1.421875 -4.816406 1.910156 -5.046875 2.515625 -5.046875 C 2.867188 -5.046875 3.175781 -4.972656 3.4375 -4.828125 C 3.707031 -4.691406 3.925781 -4.476562 4.09375 -4.1875 L 4.09375 -4.9375 L 4.890625 -4.9375 Z M 4.890625 -0.609375 "/>
</symbol>
<symbol overflow="visible" id="glyph0-30">
<path style="stroke:none;" d="M 0.78125 -6.578125 L 1.671875 -6.578125 L 1.671875 -2.578125 C 1.671875 -1.867188 1.796875 -1.359375 2.046875 -1.046875 C 2.304688 -0.742188 2.722656 -0.59375 3.296875 -0.59375 C 3.867188 -0.59375 4.28125 -0.742188 4.53125 -1.046875 C 4.78125 -1.359375 4.90625 -1.867188 4.90625 -2.578125 L 4.90625 -6.578125 L 5.8125 -6.578125 L 5.8125 -2.46875 C 5.8125 -1.613281 5.597656 -0.96875 5.171875 -0.53125 C 4.742188 -0.09375 4.117188 0.125 3.296875 0.125 C 2.460938 0.125 1.832031 -0.09375 1.40625 -0.53125 C 0.988281 -0.96875 0.78125 -1.613281 0.78125 -2.46875 Z M 0.78125 -6.578125 "/>
</symbol>
<symbol overflow="visible" id="glyph0-31">
<path style="stroke:none;" d="M 1.765625 -5.84375 L 1.765625 -0.734375 L 2.84375 -0.734375 C 3.75 -0.734375 4.410156 -0.9375 4.828125 -1.34375 C 5.253906 -1.757812 5.46875 -2.410156 5.46875 -3.296875 C 5.46875 -4.171875 5.253906 -4.8125 4.828125 -5.21875 C 4.410156 -5.632812 3.75 -5.84375 2.84375 -5.84375 Z M 0.890625 -6.578125 L 2.703125 -6.578125 C 3.972656 -6.578125 4.90625 -6.3125 5.5 -5.78125 C 6.101562 -5.25 6.40625 -4.421875 6.40625 -3.296875 C 6.40625 -2.160156 6.101562 -1.328125 5.5 -0.796875 C 4.90625 -0.265625 3.972656 0 2.703125 0 L 0.890625 0 Z M 0.890625 -6.578125 "/>
</symbol>
<symbol overflow="visible" id="glyph0-32">
<path style="stroke:none;" d="M 1.0625 -1.125 L 1.984375 -1.125 L 1.984375 -0.359375 L 1.265625 1.046875 L 0.6875 1.046875 L 1.0625 -0.359375 Z M 1.0625 -1.125 "/>
</symbol>
<symbol overflow="visible" id="glyph0-33">
<path style="stroke:none;" d="M 0.265625 -4.9375 L 1.125 -4.9375 L 2.65625 -0.796875 L 4.203125 -4.9375 L 5.0625 -4.9375 L 3.21875 0 L 2.109375 0 Z M 0.265625 -4.9375 "/>
</symbol>
<symbol overflow="visible" id="glyph0-34">
<path style="stroke:none;" d="M 3.546875 -5.96875 C 2.898438 -5.96875 2.382812 -5.726562 2 -5.25 C 1.625 -4.769531 1.4375 -4.113281 1.4375 -3.28125 C 1.4375 -2.445312 1.625 -1.789062 2 -1.3125 C 2.382812 -0.832031 2.898438 -0.59375 3.546875 -0.59375 C 4.191406 -0.59375 4.703125 -0.832031 5.078125 -1.3125 C 5.453125 -1.789062 5.640625 -2.445312 5.640625 -3.28125 C 5.640625 -4.113281 5.453125 -4.769531 5.078125 -5.25 C 4.703125 -5.726562 4.191406 -5.96875 3.546875 -5.96875 Z M 4.796875 -0.125 L 5.953125 1.15625 L 4.890625 1.15625 L 3.921875 0.109375 C 3.816406 0.117188 3.738281 0.125 3.6875 0.125 C 3.632812 0.125 3.585938 0.125 3.546875 0.125 C 2.617188 0.125 1.878906 -0.179688 1.328125 -0.796875 C 0.773438 -1.410156 0.5 -2.238281 0.5 -3.28125 C 0.5 -4.320312 0.773438 -5.148438 1.328125 -5.765625 C 1.878906 -6.378906 2.617188 -6.6875 3.546875 -6.6875 C 4.460938 -6.6875 5.195312 -6.378906 5.75 -5.765625 C 6.300781 -5.148438 6.578125 -4.320312 6.578125 -3.28125 C 6.578125 -2.519531 6.421875 -1.863281 6.109375 -1.3125 C 5.804688 -0.769531 5.367188 -0.375 4.796875 -0.125 Z M 4.796875 -0.125 "/>
</symbol>
<symbol overflow="visible" id="glyph0-35">
<path style="stroke:none;" d="M 0.375 -4.9375 L 1.1875 -4.9375 L 2.203125 -1.078125 L 3.203125 -4.9375 L 4.15625 -4.9375 L 5.171875 -1.078125 L 6.171875 -4.9375 L 6.984375 -4.9375 L 5.703125 0 L 4.734375 0 L 3.6875 -4.046875 L 2.625 0 L 1.671875 0 Z M 0.375 -4.9375 "/>
</symbol>
<symbol overflow="visible" id="glyph1-0">
<path style="stroke:none;" d="M 0.515625 1.859375 L 0.515625 -7.421875 L 5.765625 -7.421875 L 5.765625 1.859375 Z M 1.109375 1.265625 L 5.1875 1.265625 L 5.1875 -6.828125 L 1.109375 -6.828125 Z M 1.109375 1.265625 "/>
</symbol>
<symbol overflow="visible" id="glyph1-1">
<path style="stroke:none;" d="M 4.3125 -4.875 C 4.207031 -4.925781 4.09375 -4.96875 3.96875 -5 C 3.84375 -5.03125 3.707031 -5.046875 3.5625 -5.046875 C 3.03125 -5.046875 2.617188 -4.867188 2.328125 -4.515625 C 2.046875 -4.171875 1.90625 -3.675781 1.90625 -3.03125 L 1.90625 0 L 0.953125 0 L 0.953125 -5.75 L 1.90625 -5.75 L 1.90625 -4.859375 C 2.101562 -5.203125 2.359375 -5.457031 2.671875 -5.625 C 2.992188 -5.800781 3.378906 -5.890625 3.828125 -5.890625 C 3.898438 -5.890625 3.972656 -5.882812 4.046875 -5.875 C 4.128906 -5.863281 4.21875 -5.851562 4.3125 -5.84375 Z M 4.3125 -4.875 "/>
</symbol>
<symbol overflow="visible" id="glyph1-2">
<path style="stroke:none;" d="M 4.65625 -3.59375 C 4.882812 -3.519531 5.101562 -3.359375 5.3125 -3.109375 C 5.519531 -2.859375 5.726562 -2.519531 5.9375 -2.09375 L 7 0 L 5.875 0 L 4.90625 -1.96875 C 4.644531 -2.476562 4.394531 -2.816406 4.15625 -2.984375 C 3.925781 -3.148438 3.601562 -3.234375 3.1875 -3.234375 L 2.0625 -3.234375 L 2.0625 0 L 1.03125 0 L 1.03125 -7.671875 L 3.375 -7.671875 C 4.25 -7.671875 4.898438 -7.484375 5.328125 -7.109375 C 5.753906 -6.742188 5.96875 -6.191406 5.96875 -5.453125 C 5.96875 -4.972656 5.851562 -4.570312 5.625 -4.25 C 5.40625 -3.9375 5.082031 -3.71875 4.65625 -3.59375 Z M 2.0625 -6.8125 L 2.0625 -4.09375 L 3.375 -4.09375 C 3.863281 -4.09375 4.234375 -4.207031 4.484375 -4.4375 C 4.742188 -4.664062 4.875 -5.003906 4.875 -5.453125 C 4.875 -5.898438 4.742188 -6.238281 4.484375 -6.46875 C 4.234375 -6.695312 3.863281 -6.8125 3.375 -6.8125 Z M 2.0625 -6.8125 "/>
</symbol>
<symbol overflow="visible" id="glyph1-3">
<path style="stroke:none;" d="M 2.0625 -6.8125 L 2.0625 -3.9375 L 3.375 -3.9375 C 3.851562 -3.9375 4.222656 -4.0625 4.484375 -4.3125 C 4.742188 -4.5625 4.875 -4.914062 4.875 -5.375 C 4.875 -5.832031 4.742188 -6.1875 4.484375 -6.4375 C 4.222656 -6.6875 3.851562 -6.8125 3.375 -6.8125 Z M 1.03125 -7.671875 L 3.375 -7.671875 C 4.226562 -7.671875 4.875 -7.472656 5.3125 -7.078125 C 5.75 -6.691406 5.96875 -6.125 5.96875 -5.375 C 5.96875 -4.613281 5.75 -4.039062 5.3125 -3.65625 C 4.875 -3.269531 4.226562 -3.078125 3.375 -3.078125 L 2.0625 -3.078125 L 2.0625 0 L 1.03125 0 Z M 1.03125 -7.671875 "/>
</symbol>
<symbol overflow="visible" id="glyph1-4">
<path style="stroke:none;" d="M 6.765625 -7.078125 L 6.765625 -5.984375 C 6.410156 -6.304688 6.035156 -6.546875 5.640625 -6.703125 C 5.253906 -6.867188 4.835938 -6.953125 4.390625 -6.953125 C 3.515625 -6.953125 2.84375 -6.679688 2.375 -6.140625 C 1.914062 -5.609375 1.6875 -4.835938 1.6875 -3.828125 C 1.6875 -2.816406 1.914062 -2.039062 2.375 -1.5 C 2.84375 -0.96875 3.515625 -0.703125 4.390625 -0.703125 C 4.835938 -0.703125 5.253906 -0.78125 5.640625 -0.9375 C 6.035156 -1.101562 6.410156 -1.347656 6.765625 -1.671875 L 6.765625 -0.59375 C 6.398438 -0.34375 6.015625 -0.15625 5.609375 -0.03125 C 5.203125 0.09375 4.773438 0.15625 4.328125 0.15625 C 3.171875 0.15625 2.257812 -0.195312 1.59375 -0.90625 C 0.925781 -1.625 0.59375 -2.597656 0.59375 -3.828125 C 0.59375 -5.054688 0.925781 -6.023438 1.59375 -6.734375 C 2.257812 -7.441406 3.171875 -7.796875 4.328125 -7.796875 C 4.785156 -7.796875 5.21875 -7.734375 5.625 -7.609375 C 6.03125 -7.492188 6.410156 -7.316406 6.765625 -7.078125 Z M 6.765625 -7.078125 "/>
</symbol>
<symbol overflow="visible" id="glyph1-5">
<path style="stroke:none;" d=""/>
</symbol>
<symbol overflow="visible" id="glyph1-6">
<path style="stroke:none;" d="M 5.125 -5.53125 L 5.125 -4.640625 C 4.851562 -4.796875 4.582031 -4.910156 4.3125 -4.984375 C 4.050781 -5.054688 3.78125 -5.09375 3.5 -5.09375 C 2.894531 -5.09375 2.421875 -4.894531 2.078125 -4.5 C 1.742188 -4.113281 1.578125 -3.570312 1.578125 -2.875 C 1.578125 -2.164062 1.742188 -1.617188 2.078125 -1.234375 C 2.421875 -0.847656 2.894531 -0.65625 3.5 -0.65625 C 3.78125 -0.65625 4.050781 -0.691406 4.3125 -0.765625 C 4.582031 -0.835938 4.851562 -0.945312 5.125 -1.09375 L 5.125 -0.21875 C 4.863281 -0.09375 4.585938 0 4.296875 0.0625 C 4.015625 0.125 3.71875 0.15625 3.40625 0.15625 C 2.539062 0.15625 1.851562 -0.113281 1.34375 -0.65625 C 0.832031 -1.207031 0.578125 -1.945312 0.578125 -2.875 C 0.578125 -3.8125 0.832031 -4.546875 1.34375 -5.078125 C 1.863281 -5.617188 2.570312 -5.890625 3.46875 -5.890625 C 3.757812 -5.890625 4.039062 -5.859375 4.3125 -5.796875 C 4.59375 -5.734375 4.863281 -5.644531 5.125 -5.53125 Z M 5.125 -5.53125 "/>
</symbol>
<symbol overflow="visible" id="glyph1-7">
<path style="stroke:none;" d="M 0.984375 -7.984375 L 1.9375 -7.984375 L 1.9375 0 L 0.984375 0 Z M 0.984375 -7.984375 "/>
</symbol>
<symbol overflow="visible" id="glyph1-8">
<path style="stroke:none;" d="M 0.984375 -5.75 L 1.9375 -5.75 L 1.9375 0 L 0.984375 0 Z M 0.984375 -7.984375 L 1.9375 -7.984375 L 1.9375 -6.796875 L 0.984375 -6.796875 Z M 0.984375 -7.984375 "/>
</symbol>
<symbol overflow="visible" id="glyph1-9">
<path style="stroke:none;" d="M 5.90625 -3.109375 L 5.90625 -2.65625 L 1.5625 -2.65625 C 1.601562 -2 1.796875 -1.5 2.140625 -1.15625 C 2.492188 -0.820312 2.984375 -0.65625 3.609375 -0.65625 C 3.972656 -0.65625 4.320312 -0.695312 4.65625 -0.78125 C 5 -0.875 5.34375 -1.007812 5.6875 -1.1875 L 5.6875 -0.296875 C 5.34375 -0.148438 4.992188 -0.0390625 4.640625 0.03125 C 4.285156 0.113281 3.925781 0.15625 3.5625 0.15625 C 2.644531 0.15625 1.914062 -0.109375 1.375 -0.640625 C 0.84375 -1.179688 0.578125 -1.90625 0.578125 -2.8125 C 0.578125 -3.757812 0.832031 -4.507812 1.34375 -5.0625 C 1.851562 -5.613281 2.535156 -5.890625 3.390625 -5.890625 C 4.160156 -5.890625 4.769531 -5.640625 5.21875 -5.140625 C 5.675781 -4.640625 5.90625 -3.960938 5.90625 -3.109375 Z M 4.953125 -3.390625 C 4.953125 -3.910156 4.8125 -4.320312 4.53125 -4.625 C 4.25 -4.9375 3.875 -5.09375 3.40625 -5.09375 C 2.875 -5.09375 2.453125 -4.941406 2.140625 -4.640625 C 1.828125 -4.335938 1.644531 -3.921875 1.59375 -3.390625 Z M 4.953125 -3.390625 "/>
</symbol>
<symbol overflow="visible" id="glyph1-10">
<path style="stroke:none;" d="M 5.765625 -3.46875 L 5.765625 0 L 4.8125 0 L 4.8125 -3.4375 C 4.8125 -3.976562 4.707031 -4.382812 4.5 -4.65625 C 4.289062 -4.925781 3.972656 -5.0625 3.546875 -5.0625 C 3.035156 -5.0625 2.632812 -4.898438 2.34375 -4.578125 C 2.050781 -4.253906 1.90625 -3.8125 1.90625 -3.25 L 1.90625 0 L 0.953125 0 L 0.953125 -5.75 L 1.90625 -5.75 L 1.90625 -4.859375 C 2.125 -5.203125 2.382812 -5.457031 2.6875 -5.625 C 3 -5.800781 3.359375 -5.890625 3.765625 -5.890625 C 4.421875 -5.890625 4.914062 -5.679688 5.25 -5.265625 C 5.59375 -4.859375 5.765625 -4.257812 5.765625 -3.46875 Z M 5.765625 -3.46875 "/>
</symbol>
<symbol overflow="visible" id="glyph1-11">
<path style="stroke:none;" d="M 1.921875 -7.390625 L 1.921875 -5.75 L 3.859375 -5.75 L 3.859375 -5.015625 L 1.921875 -5.015625 L 1.921875 -1.890625 C 1.921875 -1.421875 1.984375 -1.117188 2.109375 -0.984375 C 2.242188 -0.859375 2.503906 -0.796875 2.890625 -0.796875 L 3.859375 -0.796875 L 3.859375 0 L 2.890625 0 C 2.171875 0 1.671875 -0.132812 1.390625 -0.40625 C 1.109375 -0.675781 0.96875 -1.171875 0.96875 -1.890625 L 0.96875 -5.015625 L 0.28125 -5.015625 L 0.28125 -5.75 L 0.96875 -5.75 L 0.96875 -7.390625 Z M 1.921875 -7.390625 "/>
</symbol>
<symbol overflow="visible" id="glyph1-12">
<path style="stroke:none;" d="M 1.03125 -7.671875 L 5.875 -7.671875 L 5.875 -6.796875 L 2.0625 -6.796875 L 2.0625 -4.53125 L 5.71875 -4.53125 L 5.71875 -3.65625 L 2.0625 -3.65625 L 2.0625 -0.875 L 5.96875 -0.875 L 5.96875 0 L 1.03125 0 Z M 1.03125 -7.671875 "/>
</symbol>
<symbol overflow="visible" id="glyph1-13">
<path style="stroke:none;" d="M 5.625 -7.421875 L 5.625 -6.40625 C 5.226562 -6.59375 4.851562 -6.734375 4.5 -6.828125 C 4.15625 -6.921875 3.820312 -6.96875 3.5 -6.96875 C 2.9375 -6.96875 2.5 -6.859375 2.1875 -6.640625 C 1.882812 -6.421875 1.734375 -6.109375 1.734375 -5.703125 C 1.734375 -5.359375 1.832031 -5.097656 2.03125 -4.921875 C 2.238281 -4.753906 2.625 -4.617188 3.1875 -4.515625 L 3.8125 -4.390625 C 4.59375 -4.242188 5.164062 -3.984375 5.53125 -3.609375 C 5.894531 -3.234375 6.078125 -2.734375 6.078125 -2.109375 C 6.078125 -1.367188 5.828125 -0.804688 5.328125 -0.421875 C 4.835938 -0.0351562 4.109375 0.15625 3.140625 0.15625 C 2.785156 0.15625 2.398438 0.113281 1.984375 0.03125 C 1.578125 -0.0507812 1.15625 -0.175781 0.71875 -0.34375 L 0.71875 -1.40625 C 1.144531 -1.164062 1.554688 -0.984375 1.953125 -0.859375 C 2.359375 -0.742188 2.753906 -0.6875 3.140625 -0.6875 C 3.734375 -0.6875 4.191406 -0.800781 4.515625 -1.03125 C 4.835938 -1.269531 5 -1.601562 5 -2.03125 C 5 -2.414062 4.882812 -2.710938 4.65625 -2.921875 C 4.425781 -3.128906 4.046875 -3.289062 3.515625 -3.40625 L 2.890625 -3.515625 C 2.117188 -3.671875 1.554688 -3.910156 1.203125 -4.234375 C 0.859375 -4.566406 0.6875 -5.03125 0.6875 -5.625 C 0.6875 -6.300781 0.925781 -6.832031 1.40625 -7.21875 C 1.882812 -7.601562 2.539062 -7.796875 3.375 -7.796875 C 3.738281 -7.796875 4.101562 -7.765625 4.46875 -7.703125 C 4.84375 -7.640625 5.226562 -7.546875 5.625 -7.421875 Z M 5.625 -7.421875 "/>
</symbol>
<symbol overflow="visible" id="glyph1-14">
<path style="stroke:none;" d="M -0.03125 -7.671875 L 6.4375 -7.671875 L 6.4375 -6.796875 L 3.734375 -6.796875 L 3.734375 0 L 2.6875 0 L 2.6875 -6.796875 L -0.03125 -6.796875 Z M -0.03125 -7.671875 "/>
</symbol>
<symbol overflow="visible" id="glyph1-15">
<path style="stroke:none;" d="M 5.765625 -3.46875 L 5.765625 0 L 4.8125 0 L 4.8125 -3.4375 C 4.8125 -3.976562 4.707031 -4.382812 4.5 -4.65625 C 4.289062 -4.925781 3.972656 -5.0625 3.546875 -5.0625 C 3.035156 -5.0625 2.632812 -4.898438 2.34375 -4.578125 C 2.050781 -4.253906 1.90625 -3.8125 1.90625 -3.25 L 1.90625 0 L 0.953125 0 L 0.953125 -7.984375 L 1.90625 -7.984375 L 1.90625 -4.859375 C 2.125 -5.203125 2.382812 -5.457031 2.6875 -5.625 C 3 -5.800781 3.359375 -5.890625 3.765625 -5.890625 C 4.421875 -5.890625 4.914062 -5.679688 5.25 -5.265625 C 5.59375 -4.859375 5.765625 -4.257812 5.765625 -3.46875 Z M 5.765625 -3.46875 "/>
</symbol>
<symbol overflow="visible" id="glyph1-16">
<path style="stroke:none;" d="M 3.21875 -5.09375 C 2.707031 -5.09375 2.304688 -4.894531 2.015625 -4.5 C 1.722656 -4.101562 1.578125 -3.5625 1.578125 -2.875 C 1.578125 -2.1875 1.722656 -1.644531 2.015625 -1.25 C 2.304688 -0.851562 2.707031 -0.65625 3.21875 -0.65625 C 3.71875 -0.65625 4.113281 -0.851562 4.40625 -1.25 C 4.695312 -1.644531 4.84375 -2.1875 4.84375 -2.875 C 4.84375 -3.550781 4.695312 -4.085938 4.40625 -4.484375 C 4.113281 -4.890625 3.71875 -5.09375 3.21875 -5.09375 Z M 3.21875 -5.890625 C 4.03125 -5.890625 4.671875 -5.617188 5.140625 -5.078125 C 5.609375 -4.546875 5.84375 -3.8125 5.84375 -2.875 C 5.84375 -1.925781 5.609375 -1.179688 5.140625 -0.640625 C 4.671875 -0.109375 4.03125 0.15625 3.21875 0.15625 C 2.394531 0.15625 1.75 -0.109375 1.28125 -0.640625 C 0.8125 -1.179688 0.578125 -1.925781 0.578125 -2.875 C 0.578125 -3.8125 0.8125 -4.546875 1.28125 -5.078125 C 1.75 -5.617188 2.394531 -5.890625 3.21875 -5.890625 Z M 3.21875 -5.890625 "/>
</symbol>
<symbol overflow="visible" id="glyph1-17">
<path style="stroke:none;" d="M 4.65625 -5.578125 L 4.65625 -4.6875 C 4.382812 -4.820312 4.101562 -4.921875 3.8125 -4.984375 C 3.53125 -5.054688 3.234375 -5.09375 2.921875 -5.09375 C 2.453125 -5.09375 2.097656 -5.019531 1.859375 -4.875 C 1.628906 -4.738281 1.515625 -4.523438 1.515625 -4.234375 C 1.515625 -4.015625 1.597656 -3.84375 1.765625 -3.71875 C 1.941406 -3.59375 2.28125 -3.472656 2.78125 -3.359375 L 3.109375 -3.296875 C 3.773438 -3.148438 4.25 -2.945312 4.53125 -2.6875 C 4.8125 -2.425781 4.953125 -2.0625 4.953125 -1.59375 C 4.953125 -1.050781 4.738281 -0.625 4.3125 -0.3125 C 3.894531 0 3.316406 0.15625 2.578125 0.15625 C 2.273438 0.15625 1.957031 0.125 1.625 0.0625 C 1.289062 0 0.9375 -0.0859375 0.5625 -0.203125 L 0.5625 -1.1875 C 0.914062 -1 1.257812 -0.859375 1.59375 -0.765625 C 1.9375 -0.679688 2.273438 -0.640625 2.609375 -0.640625 C 3.046875 -0.640625 3.382812 -0.710938 3.625 -0.859375 C 3.863281 -1.015625 3.984375 -1.234375 3.984375 -1.515625 C 3.984375 -1.773438 3.894531 -1.972656 3.71875 -2.109375 C 3.550781 -2.242188 3.175781 -2.375 2.59375 -2.5 L 2.265625 -2.578125 C 1.679688 -2.703125 1.257812 -2.890625 1 -3.140625 C 0.738281 -3.398438 0.609375 -3.75 0.609375 -4.1875 C 0.609375 -4.726562 0.800781 -5.144531 1.1875 -5.4375 C 1.570312 -5.738281 2.113281 -5.890625 2.8125 -5.890625 C 3.164062 -5.890625 3.492188 -5.863281 3.796875 -5.8125 C 4.109375 -5.757812 4.394531 -5.679688 4.65625 -5.578125 Z M 4.65625 -5.578125 "/>
</symbol>
<symbol overflow="visible" id="glyph1-18">
<path style="stroke:none;" d="M 1.03125 -7.671875 L 2.578125 -7.671875 L 4.53125 -2.453125 L 6.484375 -7.671875 L 8.03125 -7.671875 L 8.03125 0 L 7.03125 0 L 7.03125 -6.734375 L 5.046875 -1.46875 L 4.015625 -1.46875 L 2.03125 -6.734375 L 2.03125 0 L 1.03125 0 Z M 1.03125 -7.671875 "/>
</symbol>
<symbol overflow="visible" id="glyph1-19">
<path style="stroke:none;" d="M 3.59375 -2.890625 C 2.832031 -2.890625 2.304688 -2.800781 2.015625 -2.625 C 1.722656 -2.445312 1.578125 -2.148438 1.578125 -1.734375 C 1.578125 -1.398438 1.6875 -1.132812 1.90625 -0.9375 C 2.125 -0.738281 2.421875 -0.640625 2.796875 -0.640625 C 3.328125 -0.640625 3.75 -0.820312 4.0625 -1.1875 C 4.375 -1.5625 4.53125 -2.0625 4.53125 -2.6875 L 4.53125 -2.890625 Z M 5.484375 -3.28125 L 5.484375 0 L 4.53125 0 L 4.53125 -0.875 C 4.320312 -0.519531 4.054688 -0.257812 3.734375 -0.09375 C 3.410156 0.0703125 3.015625 0.15625 2.546875 0.15625 C 1.960938 0.15625 1.492188 -0.0078125 1.140625 -0.34375 C 0.796875 -0.675781 0.625 -1.117188 0.625 -1.671875 C 0.625 -2.316406 0.835938 -2.800781 1.265625 -3.125 C 1.703125 -3.457031 2.351562 -3.625 3.21875 -3.625 L 4.53125 -3.625 L 4.53125 -3.71875 C 4.53125 -4.15625 4.390625 -4.492188 4.109375 -4.734375 C 3.828125 -4.972656 3.425781 -5.09375 2.90625 -5.09375 C 2.582031 -5.09375 2.265625 -5.050781 1.953125 -4.96875 C 1.640625 -4.894531 1.335938 -4.773438 1.046875 -4.609375 L 1.046875 -5.484375 C 1.390625 -5.617188 1.722656 -5.71875 2.046875 -5.78125 C 2.378906 -5.851562 2.695312 -5.890625 3 -5.890625 C 3.832031 -5.890625 4.453125 -5.671875 4.859375 -5.234375 C 5.273438 -4.804688 5.484375 -4.15625 5.484375 -3.28125 Z M 5.484375 -3.28125 "/>
</symbol>
<symbol overflow="visible" id="glyph1-20">
<path style="stroke:none;" d="M 4.765625 -2.9375 C 4.765625 -3.625 4.625 -4.15625 4.34375 -4.53125 C 4.0625 -4.90625 3.664062 -5.09375 3.15625 -5.09375 C 2.65625 -5.09375 2.257812 -4.90625 1.96875 -4.53125 C 1.6875 -4.15625 1.546875 -3.625 1.546875 -2.9375 C 1.546875 -2.257812 1.6875 -1.734375 1.96875 -1.359375 C 2.257812 -0.984375 2.65625 -0.796875 3.15625 -0.796875 C 3.664062 -0.796875 4.0625 -0.984375 4.34375 -1.359375 C 4.625 -1.734375 4.765625 -2.257812 4.765625 -2.9375 Z M 5.71875 -0.71875 C 5.71875 0.257812 5.5 0.988281 5.0625 1.46875 C 4.625 1.945312 3.957031 2.1875 3.0625 2.1875 C 2.726562 2.1875 2.414062 2.160156 2.125 2.109375 C 1.832031 2.054688 1.546875 1.984375 1.265625 1.890625 L 1.265625 0.96875 C 1.546875 1.113281 1.820312 1.222656 2.09375 1.296875 C 2.363281 1.367188 2.640625 1.40625 2.921875 1.40625 C 3.535156 1.40625 3.992188 1.242188 4.296875 0.921875 C 4.609375 0.597656 4.765625 0.109375 4.765625 -0.546875 L 4.765625 -1.015625 C 4.566406 -0.671875 4.316406 -0.414062 4.015625 -0.25 C 3.710938 -0.0820312 3.347656 0 2.921875 0 C 2.222656 0 1.65625 -0.265625 1.21875 -0.796875 C 0.789062 -1.335938 0.578125 -2.050781 0.578125 -2.9375 C 0.578125 -3.832031 0.789062 -4.546875 1.21875 -5.078125 C 1.65625 -5.617188 2.222656 -5.890625 2.921875 -5.890625 C 3.347656 -5.890625 3.710938 -5.804688 4.015625 -5.640625 C 4.316406 -5.472656 4.566406 -5.21875 4.765625 -4.875 L 4.765625 -5.75 L 5.71875 -5.75 Z M 5.71875 -0.71875 "/>
</symbol>
<symbol overflow="visible" id="glyph1-21">
<path style="stroke:none;" d="M 3.375 0.53125 C 3.113281 1.21875 2.851562 1.664062 2.59375 1.875 C 2.34375 2.082031 2.003906 2.1875 1.578125 2.1875 L 0.828125 2.1875 L 0.828125 1.390625 L 1.390625 1.390625 C 1.648438 1.390625 1.847656 1.328125 1.984375 1.203125 C 2.128906 1.085938 2.289062 0.800781 2.46875 0.34375 L 2.640625 -0.09375 L 0.3125 -5.75 L 1.3125 -5.75 L 3.109375 -1.25 L 4.90625 -5.75 L 5.90625 -5.75 Z M 3.375 0.53125 "/>
</symbol>
<symbol overflow="visible" id="glyph1-22">
<path style="stroke:none;" d="M 3.59375 -6.640625 L 2.1875 -2.828125 L 5 -2.828125 Z M 3 -7.671875 L 4.171875 -7.671875 L 7.09375 0 L 6.015625 0 L 5.328125 -1.96875 L 1.875 -1.96875 L 1.171875 0 L 0.078125 0 Z M 3 -7.671875 "/>
</symbol>
<symbol overflow="visible" id="glyph1-23">
<path style="stroke:none;" d="M 4.140625 -6.96875 C 3.390625 -6.96875 2.789062 -6.6875 2.34375 -6.125 C 1.90625 -5.5625 1.6875 -4.796875 1.6875 -3.828125 C 1.6875 -2.859375 1.90625 -2.09375 2.34375 -1.53125 C 2.789062 -0.96875 3.390625 -0.6875 4.140625 -0.6875 C 4.890625 -0.6875 5.484375 -0.96875 5.921875 -1.53125 C 6.359375 -2.09375 6.578125 -2.859375 6.578125 -3.828125 C 6.578125 -4.796875 6.359375 -5.5625 5.921875 -6.125 C 5.484375 -6.6875 4.890625 -6.96875 4.140625 -6.96875 Z M 5.59375 -0.140625 L 6.953125 1.359375 L 5.703125 1.359375 L 4.5625 0.125 C 4.457031 0.132812 4.375 0.140625 4.3125 0.140625 C 4.25 0.148438 4.191406 0.15625 4.140625 0.15625 C 3.054688 0.15625 2.191406 -0.203125 1.546875 -0.921875 C 0.910156 -1.648438 0.59375 -2.617188 0.59375 -3.828125 C 0.59375 -5.035156 0.910156 -6 1.546875 -6.71875 C 2.191406 -7.4375 3.054688 -7.796875 4.140625 -7.796875 C 5.210938 -7.796875 6.066406 -7.4375 6.703125 -6.71875 C 7.347656 -6 7.671875 -5.035156 7.671875 -3.828125 C 7.671875 -2.929688 7.492188 -2.164062 7.140625 -1.53125 C 6.785156 -0.90625 6.269531 -0.441406 5.59375 -0.140625 Z M 5.59375 -0.140625 "/>
</symbol>
<symbol overflow="visible" id="glyph1-24">
<path style="stroke:none;" d="M 1.03125 -7.671875 L 2.0625 -7.671875 L 2.0625 -0.875 L 5.796875 -0.875 L 5.796875 0 L 1.03125 0 Z M 1.03125 -7.671875 "/>
</symbol>
<symbol overflow="visible" id="glyph1-25">
<path style="stroke:none;" d="M 4.765625 -4.875 L 4.765625 -7.984375 L 5.71875 -7.984375 L 5.71875 0 L 4.765625 0 L 4.765625 -0.859375 C 4.566406 -0.515625 4.316406 -0.257812 4.015625 -0.09375 C 3.710938 0.0703125 3.347656 0.15625 2.921875 0.15625 C 2.234375 0.15625 1.671875 -0.117188 1.234375 -0.671875 C 0.796875 -1.234375 0.578125 -1.96875 0.578125 -2.875 C 0.578125 -3.769531 0.796875 -4.492188 1.234375 -5.046875 C 1.671875 -5.609375 2.234375 -5.890625 2.921875 -5.890625 C 3.347656 -5.890625 3.710938 -5.804688 4.015625 -5.640625 C 4.316406 -5.472656 4.566406 -5.21875 4.765625 -4.875 Z M 1.546875 -2.875 C 1.546875 -2.175781 1.6875 -1.628906 1.96875 -1.234375 C 2.257812 -0.835938 2.65625 -0.640625 3.15625 -0.640625 C 3.65625 -0.640625 4.046875 -0.835938 4.328125 -1.234375 C 4.617188 -1.628906 4.765625 -2.175781 4.765625 -2.875 C 4.765625 -3.5625 4.617188 -4.101562 4.328125 -4.5 C 4.046875 -4.894531 3.65625 -5.09375 3.15625 -5.09375 C 2.65625 -5.09375 2.257812 -4.894531 1.96875 -4.5 C 1.6875 -4.101562 1.546875 -3.5625 1.546875 -2.875 Z M 1.546875 -2.875 "/>
</symbol>
<symbol overflow="visible" id="glyph1-26">
<path style="stroke:none;" d="M 5.109375 -2.875 C 5.109375 -3.5625 4.960938 -4.101562 4.671875 -4.5 C 4.390625 -4.894531 4 -5.09375 3.5 -5.09375 C 3.007812 -5.09375 2.617188 -4.894531 2.328125 -4.5 C 2.046875 -4.101562 1.90625 -3.5625 1.90625 -2.875 C 1.90625 -2.175781 2.046875 -1.628906 2.328125 -1.234375 C 2.617188 -0.835938 3.007812 -0.640625 3.5 -0.640625 C 4 -0.640625 4.390625 -0.835938 4.671875 -1.234375 C 4.960938 -1.628906 5.109375 -2.175781 5.109375 -2.875 Z M 1.90625 -4.875 C 2.101562 -5.21875 2.351562 -5.472656 2.65625 -5.640625 C 2.957031 -5.804688 3.316406 -5.890625 3.734375 -5.890625 C 4.429688 -5.890625 5 -5.609375 5.4375 -5.046875 C 5.875 -4.492188 6.09375 -3.769531 6.09375 -2.875 C 6.09375 -1.96875 5.875 -1.234375 5.4375 -0.671875 C 5 -0.117188 4.429688 0.15625 3.734375 0.15625 C 3.316406 0.15625 2.957031 0.0703125 2.65625 -0.09375 C 2.351562 -0.257812 2.101562 -0.515625 1.90625 -0.859375 L 1.90625 0 L 0.953125 0 L 0.953125 -7.984375 L 1.90625 -7.984375 Z M 1.90625 -4.875 "/>
</symbol>
</g>
</defs>
<g id="surface1">
<g style="fill:rgb(23.921569%,23.921569%,22.745098%);fill-opacity:1;">
  <use xlink:href="#glyph0-1" x="30" y="46.559986"/>
  <use xlink:href="#glyph0-2" x="36" y="46.559986"/>
  <use xlink:href="#glyph0-3" x="38.25" y="46.559986"/>
  <use xlink:href="#glyph0-4" x="40.5" y="46.559986"/>
  <use xlink:href="#glyph0-5" x="45.75" y="46.559986"/>
  <use xlink:href="#glyph0-6" x="51.75" y="46.559986"/>
  <use xlink:href="#glyph0-7" x="55.5" y="46.559986"/>
</g>
<path style="fill-rule:nonzero;fill:rgb(94.509804%,93.725491%,90.980393%);fill-opacity:1;stroke-width:0.5;stroke-linecap:butt;stroke-linejoin:miter;stroke:rgb(37.254903%,36.862746%,35.294119%);stroke-opacity:1;stroke-miterlimit:4;" d="M 148 44.001096 L 292 44.001096 C 296.416667 44.001096 300 47.579859 300 52.001295 L 300 92.002292 C 300 96.418527 296.416667 100.002491 292 100.002491 L 148 100.002491 C 143.583333 100.002491 140 96.418527 140 92.002292 L 140 52.001295 C 140 47.579859 143.583333 44.001096 148 44.001096 Z M 148 44.001096 " transform="matrix(0.75,0,0,0.750958,0,0)"/>
<g style="fill:rgb(26.666668%,26.666668%,25.490198%);fill-opacity:1;">
  <use xlink:href="#glyph1-1" x="136.125" y="49.563473"/>
  <use xlink:href="#glyph1-2" x="140.625" y="49.563473"/>
  <use xlink:href="#glyph1-3" x="148.125" y="49.563473"/>
  <use xlink:href="#glyph1-4" x="154.125" y="49.563473"/>
  <use xlink:href="#glyph1-5" x="161.625" y="49.563473"/>
  <use xlink:href="#glyph1-6" x="164.625" y="49.563473"/>
  <use xlink:href="#glyph1-7" x="170.625" y="49.563473"/>
  <use xlink:href="#glyph1-8" x="173.625" y="49.563473"/>
  <use xlink:href="#glyph1-9" x="176.625" y="49.563473"/>
  <use xlink:href="#glyph1-10" x="183.375" y="49.563473"/>
  <use xlink:href="#glyph1-11" x="190.125" y="49.563473"/>
</g>
<g style="fill:rgb(37.254903%,36.862746%,35.294119%);fill-opacity:1;">
  <use xlink:href="#glyph0-8" x="105.75" y="63.079517"/>
  <use xlink:href="#glyph0-4" x="112.5" y="63.079517"/>
  <use xlink:href="#glyph0-5" x="117.75" y="63.079517"/>
  <use xlink:href="#glyph0-4" x="123.75" y="63.079517"/>
  <use xlink:href="#glyph0-9" x="129" y="63.079517"/>
  <use xlink:href="#glyph0-10" x="132.75" y="63.079517"/>
  <use xlink:href="#glyph0-6" x="138" y="63.079517"/>
  <use xlink:href="#glyph0-4" x="141.75" y="63.079517"/>
  <use xlink:href="#glyph0-11" x="147" y="63.079517"/>
  <use xlink:href="#glyph0-12" x="153" y="63.079517"/>
  <use xlink:href="#glyph0-7" x="156" y="63.079517"/>
  <use xlink:href="#glyph0-6" x="160.5" y="63.079517"/>
  <use xlink:href="#glyph0-13" x="164.25" y="63.079517"/>
  <use xlink:href="#glyph0-14" x="170.25" y="63.079517"/>
  <use xlink:href="#glyph0-12" x="176.25" y="63.079517"/>
  <use xlink:href="#glyph0-15" x="179.25" y="63.079517"/>
  <use xlink:href="#glyph0-16" x="184.5" y="63.079517"/>
  <use xlink:href="#glyph0-5" x="189.75" y="63.079517"/>
  <use xlink:href="#glyph0-7" x="195.75" y="63.079517"/>
  <use xlink:href="#glyph0-13" x="200.25" y="63.079517"/>
  <use xlink:href="#glyph0-17" x="206.25" y="63.079517"/>
  <use xlink:href="#glyph0-4" x="215.25" y="63.079517"/>
  <use xlink:href="#glyph0-9" x="220.5" y="63.079517"/>
</g>
<path style="fill-rule:nonzero;fill:rgb(94.509804%,93.725491%,90.980393%);fill-opacity:1;stroke-width:0.5;stroke-linecap:butt;stroke-linejoin:miter;stroke:rgb(37.254903%,36.862746%,35.294119%);stroke-opacity:1;stroke-miterlimit:4;" d="M 388 44.001096 L 532 44.001096 C 536.416667 44.001096 540 47.579859 540 52.001295 L 540 92.002292 C 540 96.418527 536.416667 100.002491 532 100.002491 L 388 100.002491 C 383.583333 100.002491 380 96.418527 380 92.002292 L 380 52.001295 C 380 47.579859 383.583333 44.001096 388 44.001096 Z M 388 44.001096 " transform="matrix(0.75,0,0,0.750958,0,0)"/>
<g style="fill:rgb(26.666668%,26.666668%,25.490198%);fill-opacity:1;">
  <use xlink:href="#glyph1-2" x="315" y="49.563473"/>
  <use xlink:href="#glyph1-12" x="322.5" y="49.563473"/>
  <use xlink:href="#glyph1-13" x="329.25" y="49.563473"/>
  <use xlink:href="#glyph1-14" x="336" y="49.563473"/>
  <use xlink:href="#glyph1-5" x="342.75" y="49.563473"/>
  <use xlink:href="#glyph1-6" x="345.75" y="49.563473"/>
  <use xlink:href="#glyph1-7" x="351.75" y="49.563473"/>
  <use xlink:href="#glyph1-8" x="354.75" y="49.563473"/>
  <use xlink:href="#glyph1-9" x="357.75" y="49.563473"/>
  <use xlink:href="#glyph1-10" x="364.5" y="49.563473"/>
  <use xlink:href="#glyph1-11" x="371.25" y="49.563473"/>
</g>
<g style="fill:rgb(37.254903%,36.862746%,35.294119%);fill-opacity:1;">
  <use xlink:href="#glyph0-18" x="287.25" y="63.079517"/>
  <use xlink:href="#glyph0-6" x="293.25" y="63.079517"/>
  <use xlink:href="#glyph0-10" x="297" y="63.079517"/>
  <use xlink:href="#glyph0-5" x="302.25" y="63.079517"/>
  <use xlink:href="#glyph0-11" x="308.25" y="63.079517"/>
  <use xlink:href="#glyph0-10" x="314.25" y="63.079517"/>
  <use xlink:href="#glyph0-9" x="319.5" y="63.079517"/>
  <use xlink:href="#glyph0-11" x="323.25" y="63.079517"/>
  <use xlink:href="#glyph0-12" x="329.25" y="63.079517"/>
  <use xlink:href="#glyph0-19" x="332.25" y="63.079517"/>
  <use xlink:href="#glyph0-20" x="339" y="63.079517"/>
  <use xlink:href="#glyph0-20" x="344.25" y="63.079517"/>
  <use xlink:href="#glyph0-21" x="349.5" y="63.079517"/>
  <use xlink:href="#glyph0-12" x="354.75" y="63.079517"/>
  <use xlink:href="#glyph0-15" x="357.75" y="63.079517"/>
  <use xlink:href="#glyph0-16" x="363" y="63.079517"/>
  <use xlink:href="#glyph0-5" x="368.25" y="63.079517"/>
  <use xlink:href="#glyph0-7" x="374.25" y="63.079517"/>
  <use xlink:href="#glyph0-13" x="378.75" y="63.079517"/>
  <use xlink:href="#glyph0-17" x="384.75" y="63.079517"/>
  <use xlink:href="#glyph0-4" x="393.75" y="63.079517"/>
  <use xlink:href="#glyph0-9" x="399" y="63.079517"/>
</g>
<path style="fill:none;stroke-width:1.5;stroke-linecap:butt;stroke-linejoin:miter;stroke:rgb(45.09804%,44.705883%,42.352942%);stroke-opacity:1;stroke-miterlimit:4;" d="M 220 100.002491 L 220 150.001136 " transform="matrix(0.75,0,0,0.750958,0,0)"/>
<path style="fill:none;stroke-width:1.5;stroke-linecap:butt;stroke-linejoin:miter;stroke:rgb(45.09804%,44.705883%,42.352942%);stroke-opacity:1;stroke-miterlimit:4;" d="M 460 100.002491 L 460 150.001136 " transform="matrix(0.75,0,0,0.750958,0,0)"/>
<g style="fill:rgb(23.921569%,23.921569%,22.745098%);fill-opacity:1;">
  <use xlink:href="#glyph0-22" x="30" y="136.673267"/>
  <use xlink:href="#glyph0-21" x="36" y="136.673267"/>
  <use xlink:href="#glyph0-23" x="41.25" y="136.673267"/>
  <use xlink:href="#glyph0-12" x="44.25" y="136.673267"/>
  <use xlink:href="#glyph0-24" x="47.25" y="136.673267"/>
  <use xlink:href="#glyph0-16" x="53.25" y="136.673267"/>
  <use xlink:href="#glyph0-7" x="58.5" y="136.673267"/>
  <use xlink:href="#glyph0-6" x="63" y="136.673267"/>
  <use xlink:href="#glyph0-7" x="66.75" y="136.673267"/>
</g>
<path style="fill-rule:nonzero;fill:rgb(93.333334%,92.941177%,99.607843%);fill-opacity:1;stroke-width:0.5;stroke-linecap:butt;stroke-linejoin:miter;stroke:rgb(32.549021%,29.019609%,71.764708%);stroke-opacity:1;stroke-miterlimit:4;" d="M 148 151.998585 L 292 151.998585 C 296.416667 151.998585 300 155.582549 300 159.998784 L 300 199.999781 C 300 204.416016 296.416667 207.99998 292 207.99998 L 148 207.99998 C 143.583333 207.99998 140 204.416016 140 199.999781 L 140 159.998784 C 140 155.582549 143.583333 151.998585 148 151.998585 Z M 148 151.998585 " transform="matrix(0.75,0,0,0.750958,0,0)"/>
<g style="fill:rgb(23.529412%,20.392157%,53.725493%);fill-opacity:1;">
  <use xlink:href="#glyph1-1" x="139.5" y="130.665035"/>
  <use xlink:href="#glyph1-2" x="144" y="130.665035"/>
  <use xlink:href="#glyph1-3" x="151.5" y="130.665035"/>
  <use xlink:href="#glyph1-4" x="157.5" y="130.665035"/>
  <use xlink:href="#glyph1-5" x="165" y="130.665035"/>
  <use xlink:href="#glyph1-15" x="168" y="130.665035"/>
  <use xlink:href="#glyph1-16" x="174.75" y="130.665035"/>
  <use xlink:href="#glyph1-17" x="181.5" y="130.665035"/>
  <use xlink:href="#glyph1-11" x="186.75" y="130.665035"/>
</g>
<g style="fill:rgb(32.549021%,29.019609%,71.764708%);fill-opacity:1;">
  <use xlink:href="#glyph0-21" x="103.125" y="145.684986"/>
  <use xlink:href="#glyph0-9" x="108.375" y="145.684986"/>
  <use xlink:href="#glyph0-16" x="112.125" y="145.684986"/>
  <use xlink:href="#glyph0-15" x="117.375" y="145.684986"/>
  <use xlink:href="#glyph0-4" x="122.625" y="145.684986"/>
  <use xlink:href="#glyph0-11" x="127.875" y="145.684986"/>
  <use xlink:href="#glyph0-13" x="133.875" y="145.684986"/>
  <use xlink:href="#glyph0-9" x="139.875" y="145.684986"/>
  <use xlink:href="#glyph0-4" x="143.625" y="145.684986"/>
  <use xlink:href="#glyph0-25" x="148.875" y="145.684986"/>
  <use xlink:href="#glyph0-14" x="151.875" y="145.684986"/>
  <use xlink:href="#glyph0-10" x="157.875" y="145.684986"/>
  <use xlink:href="#glyph0-7" x="163.125" y="145.684986"/>
  <use xlink:href="#glyph0-4" x="167.625" y="145.684986"/>
  <use xlink:href="#glyph0-11" x="172.875" y="145.684986"/>
  <use xlink:href="#glyph0-12" x="178.875" y="145.684986"/>
  <use xlink:href="#glyph0-4" x="181.875" y="145.684986"/>
  <use xlink:href="#glyph0-5" x="187.125" y="145.684986"/>
  <use xlink:href="#glyph0-11" x="193.125" y="145.684986"/>
  <use xlink:href="#glyph0-26" x="199.125" y="145.684986"/>
  <use xlink:href="#glyph0-16" x="205.125" y="145.684986"/>
  <use xlink:href="#glyph0-3" x="210.375" y="145.684986"/>
  <use xlink:href="#glyph0-5" x="212.625" y="145.684986"/>
  <use xlink:href="#glyph0-6" x="218.625" y="145.684986"/>
  <use xlink:href="#glyph0-7" x="222.375" y="145.684986"/>
</g>
<path style="fill-rule:nonzero;fill:rgb(93.333334%,92.941177%,99.607843%);fill-opacity:1;stroke-width:0.5;stroke-linecap:butt;stroke-linejoin:miter;stroke:rgb(32.549021%,29.019609%,71.764708%);stroke-opacity:1;stroke-miterlimit:4;" d="M 388 151.998585 L 532 151.998585 C 536.416667 151.998585 540 155.582549 540 159.998784 L 540 199.999781 C 540 204.416016 536.416667 207.99998 532 207.99998 L 388 207.99998 C 383.583333 207.99998 380 204.416016 380 199.999781 L 380 159.998784 C 380 155.582549 383.583333 151.998585 388 151.998585 Z M 388 151.998585 " transform="matrix(0.75,0,0,0.750958,0,0)"/>
<g style="fill:rgb(23.529412%,20.392157%,53.725493%);fill-opacity:1;">
  <use xlink:href="#glyph1-2" x="318.375" y="130.665035"/>
  <use xlink:href="#glyph1-12" x="325.875" y="130.665035"/>
  <use xlink:href="#glyph1-13" x="332.625" y="130.665035"/>
  <use xlink:href="#glyph1-14" x="339.375" y="130.665035"/>
  <use xlink:href="#glyph1-5" x="346.125" y="130.665035"/>
  <use xlink:href="#glyph1-15" x="349.125" y="130.665035"/>
  <use xlink:href="#glyph1-16" x="355.875" y="130.665035"/>
  <use xlink:href="#glyph1-17" x="362.625" y="130.665035"/>
  <use xlink:href="#glyph1-11" x="367.875" y="130.665035"/>
</g>
<g style="fill:rgb(32.549021%,29.019609%,71.764708%);fill-opacity:1;">
  <use xlink:href="#glyph0-27" x="285.375" y="145.684986"/>
  <use xlink:href="#glyph0-4" x="291.375" y="145.684986"/>
  <use xlink:href="#glyph0-7" x="296.625" y="145.684986"/>
  <use xlink:href="#glyph0-16" x="301.125" y="145.684986"/>
  <use xlink:href="#glyph0-13" x="306.375" y="145.684986"/>
  <use xlink:href="#glyph0-9" x="312.375" y="145.684986"/>
  <use xlink:href="#glyph0-15" x="316.125" y="145.684986"/>
  <use xlink:href="#glyph0-4" x="321.375" y="145.684986"/>
  <use xlink:href="#glyph0-25" x="326.625" y="145.684986"/>
  <use xlink:href="#glyph0-14" x="329.625" y="145.684986"/>
  <use xlink:href="#glyph0-10" x="335.625" y="145.684986"/>
  <use xlink:href="#glyph0-7" x="340.875" y="145.684986"/>
  <use xlink:href="#glyph0-4" x="345.375" y="145.684986"/>
  <use xlink:href="#glyph0-11" x="350.625" y="145.684986"/>
  <use xlink:href="#glyph0-12" x="356.625" y="145.684986"/>
  <use xlink:href="#glyph0-4" x="359.625" y="145.684986"/>
  <use xlink:href="#glyph0-5" x="364.875" y="145.684986"/>
  <use xlink:href="#glyph0-11" x="370.875" y="145.684986"/>
  <use xlink:href="#glyph0-26" x="376.875" y="145.684986"/>
  <use xlink:href="#glyph0-16" x="382.875" y="145.684986"/>
  <use xlink:href="#glyph0-3" x="388.125" y="145.684986"/>
  <use xlink:href="#glyph0-5" x="390.375" y="145.684986"/>
  <use xlink:href="#glyph0-6" x="396.375" y="145.684986"/>
  <use xlink:href="#glyph0-7" x="400.125" y="145.684986"/>
</g>
<path style="fill:none;stroke-width:1.5;stroke-linecap:butt;stroke-linejoin:miter;stroke:rgb(45.09804%,44.705883%,42.352942%);stroke-opacity:1;stroke-miterlimit:4;" d="M 220 207.99998 L 310 277.999123 " transform="matrix(0.75,0,0,0.750958,0,0)"/>
<path style="fill:none;stroke-width:1.5;stroke-linecap:butt;stroke-linejoin:miter;stroke:rgb(45.09804%,44.705883%,42.352942%);stroke-opacity:1;stroke-miterlimit:4;" d="M 460 207.99998 L 370 277.999123 " transform="matrix(0.75,0,0,0.750958,0,0)"/>
<g style="fill:rgb(23.921569%,23.921569%,22.745098%);fill-opacity:1;">
  <use xlink:href="#glyph0-28" x="30" y="234.298267"/>
  <use xlink:href="#glyph0-13" x="36" y="234.298267"/>
  <use xlink:href="#glyph0-7" x="42" y="234.298267"/>
  <use xlink:href="#glyph0-3" x="46.5" y="234.298267"/>
  <use xlink:href="#glyph0-5" x="48.75" y="234.298267"/>
  <use xlink:href="#glyph0-4" x="54.75" y="234.298267"/>
  <use xlink:href="#glyph0-7" x="60" y="234.298267"/>
  <use xlink:href="#glyph0-7" x="64.5" y="234.298267"/>
  <use xlink:href="#glyph0-12" x="69" y="234.298267"/>
  <use xlink:href="#glyph0-2" x="72" y="234.298267"/>
  <use xlink:href="#glyph0-16" x="74.25" y="234.298267"/>
  <use xlink:href="#glyph0-29" x="79.5" y="234.298267"/>
  <use xlink:href="#glyph0-3" x="85.5" y="234.298267"/>
  <use xlink:href="#glyph0-15" x="87.75" y="234.298267"/>
</g>
<path style="fill-rule:nonzero;fill:rgb(88.235295%,96.078432%,93.333334%);fill-opacity:1;stroke-width:0.5;stroke-linecap:butt;stroke-linejoin:miter;stroke:rgb(5.882353%,43.137255%,33.725491%);stroke-opacity:1;stroke-miterlimit:4;" d="M 198 280.001774 L 482 280.001774 C 486.416667 280.001774 490 283.580537 490 288.001973 L 490 327.997768 C 490 332.419204 486.416667 335.997967 482 335.997967 L 198 335.997967 C 193.583333 335.997967 190 332.419204 190 327.997768 L 190 288.001973 C 190 283.580537 193.583333 280.001774 198 280.001774 Z M 198 280.001774 " transform="matrix(0.75,0,0,0.750958,0,0)"/>
<g style="fill:rgb(3.137255%,31.37255%,25.490198%);fill-opacity:1;">
  <use xlink:href="#glyph1-18" x="216.375" y="226.790035"/>
  <use xlink:href="#glyph1-19" x="225.375" y="226.790035"/>
  <use xlink:href="#glyph1-10" x="232.125" y="226.790035"/>
  <use xlink:href="#glyph1-19" x="238.875" y="226.790035"/>
  <use xlink:href="#glyph1-20" x="245.625" y="226.790035"/>
  <use xlink:href="#glyph1-9" x="252.375" y="226.790035"/>
  <use xlink:href="#glyph1-1" x="259.125" y="226.790035"/>
  <use xlink:href="#glyph1-5" x="263.625" y="226.790035"/>
  <use xlink:href="#glyph1-7" x="266.625" y="226.790035"/>
  <use xlink:href="#glyph1-19" x="269.625" y="226.790035"/>
  <use xlink:href="#glyph1-21" x="276.375" y="226.790035"/>
  <use xlink:href="#glyph1-9" x="282.375" y="226.790035"/>
  <use xlink:href="#glyph1-1" x="289.125" y="226.790035"/>
</g>
<g style="fill:rgb(5.882353%,43.137255%,33.725491%);fill-opacity:1;">
  <use xlink:href="#glyph0-1" x="172.125" y="241.809986"/>
  <use xlink:href="#glyph0-27" x="178.125" y="241.809986"/>
  <use xlink:href="#glyph0-30" x="184.125" y="241.809986"/>
  <use xlink:href="#glyph0-31" x="190.875" y="241.809986"/>
  <use xlink:href="#glyph0-12" x="197.625" y="241.809986"/>
  <use xlink:href="#glyph0-16" x="200.625" y="241.809986"/>
  <use xlink:href="#glyph0-9" x="205.875" y="241.809986"/>
  <use xlink:href="#glyph0-15" x="209.625" y="241.809986"/>
  <use xlink:href="#glyph0-24" x="214.875" y="241.809986"/>
  <use xlink:href="#glyph0-4" x="220.875" y="241.809986"/>
  <use xlink:href="#glyph0-7" x="226.125" y="241.809986"/>
  <use xlink:href="#glyph0-6" x="230.625" y="241.809986"/>
  <use xlink:href="#glyph0-9" x="234.375" y="241.809986"/>
  <use xlink:href="#glyph0-10" x="238.125" y="241.809986"/>
  <use xlink:href="#glyph0-6" x="243.375" y="241.809986"/>
  <use xlink:href="#glyph0-3" x="247.125" y="241.809986"/>
  <use xlink:href="#glyph0-16" x="249.375" y="241.809986"/>
  <use xlink:href="#glyph0-5" x="254.625" y="241.809986"/>
  <use xlink:href="#glyph0-32" x="260.625" y="241.809986"/>
  <use xlink:href="#glyph0-12" x="263.625" y="241.809986"/>
  <use xlink:href="#glyph0-33" x="266.625" y="241.809986"/>
  <use xlink:href="#glyph0-10" x="271.875" y="241.809986"/>
  <use xlink:href="#glyph0-2" x="277.125" y="241.809986"/>
  <use xlink:href="#glyph0-3" x="279.375" y="241.809986"/>
  <use xlink:href="#glyph0-11" x="281.625" y="241.809986"/>
  <use xlink:href="#glyph0-10" x="287.625" y="241.809986"/>
  <use xlink:href="#glyph0-6" x="292.875" y="241.809986"/>
  <use xlink:href="#glyph0-3" x="296.625" y="241.809986"/>
  <use xlink:href="#glyph0-16" x="298.875" y="241.809986"/>
  <use xlink:href="#glyph0-5" x="304.125" y="241.809986"/>
  <use xlink:href="#glyph0-32" x="310.125" y="241.809986"/>
  <use xlink:href="#glyph0-12" x="313.125" y="241.809986"/>
  <use xlink:href="#glyph0-9" x="316.125" y="241.809986"/>
  <use xlink:href="#glyph0-13" x="319.875" y="241.809986"/>
  <use xlink:href="#glyph0-2" x="325.875" y="241.809986"/>
  <use xlink:href="#glyph0-4" x="328.125" y="241.809986"/>
  <use xlink:href="#glyph0-7" x="333.375" y="241.809986"/>
</g>
<path style="fill:none;stroke-width:1.5;stroke-linecap:butt;stroke-linejoin:miter;stroke:rgb(45.09804%,44.705883%,42.352942%);stroke-opacity:1;stroke-miterlimit:4;" d="M 340 335.997967 L 340 386.001814 " transform="matrix(0.75,0,0,0.750958,0,0)"/>
<g style="fill:rgb(23.921569%,23.921569%,22.745098%);fill-opacity:1;">
  <use xlink:href="#glyph0-31" x="30" y="313.899829"/>
  <use xlink:href="#glyph0-10" x="36.75" y="313.899829"/>
  <use xlink:href="#glyph0-6" x="42" y="313.899829"/>
  <use xlink:href="#glyph0-10" x="45.75" y="313.899829"/>
  <use xlink:href="#glyph0-12" x="51" y="313.899829"/>
  <use xlink:href="#glyph0-2" x="54" y="313.899829"/>
  <use xlink:href="#glyph0-16" x="56.25" y="313.899829"/>
  <use xlink:href="#glyph0-29" x="61.5" y="313.899829"/>
  <use xlink:href="#glyph0-3" x="67.5" y="313.899829"/>
  <use xlink:href="#glyph0-15" x="69.75" y="313.899829"/>
</g>
<path style="fill-rule:nonzero;fill:rgb(88.235295%,96.078432%,93.333334%);fill-opacity:1;stroke-width:0.5;stroke-linecap:butt;stroke-linejoin:miter;stroke:rgb(5.882353%,43.137255%,33.725491%);stroke-opacity:1;stroke-miterlimit:4;" d="M 198 387.999263 L 482 387.999263 C 486.416667 387.999263 490 391.583227 490 395.999462 L 490 436.000458 C 490 440.416693 486.416667 444.000658 482 444.000658 L 198 444.000658 C 193.583333 444.000658 190 440.416693 190 436.000458 L 190 395.999462 C 190 391.583227 193.583333 387.999263 198 387.999263 Z M 198 387.999263 " transform="matrix(0.75,0,0,0.750958,0,0)"/>
<g style="fill:rgb(3.137255%,31.37255%,25.490198%);fill-opacity:1;">
  <use xlink:href="#glyph1-22" x="222" y="307.891598"/>
  <use xlink:href="#glyph1-6" x="228.75" y="307.891598"/>
  <use xlink:href="#glyph1-6" x="234.75" y="307.891598"/>
  <use xlink:href="#glyph1-9" x="240.75" y="307.891598"/>
  <use xlink:href="#glyph1-17" x="247.5" y="307.891598"/>
  <use xlink:href="#glyph1-17" x="252.75" y="307.891598"/>
  <use xlink:href="#glyph1-5" x="258" y="307.891598"/>
  <use xlink:href="#glyph1-7" x="261" y="307.891598"/>
  <use xlink:href="#glyph1-19" x="264" y="307.891598"/>
  <use xlink:href="#glyph1-21" x="270.75" y="307.891598"/>
  <use xlink:href="#glyph1-9" x="276.75" y="307.891598"/>
  <use xlink:href="#glyph1-1" x="283.5" y="307.891598"/>
</g>
<g style="fill:rgb(5.882353%,43.137255%,33.725491%);fill-opacity:1;">
  <use xlink:href="#glyph0-34" x="186.75" y="322.911548"/>
  <use xlink:href="#glyph0-13" x="193.5" y="322.911548"/>
  <use xlink:href="#glyph0-4" x="199.5" y="322.911548"/>
  <use xlink:href="#glyph0-9" x="204.75" y="322.911548"/>
  <use xlink:href="#glyph0-3" x="208.5" y="322.911548"/>
  <use xlink:href="#glyph0-4" x="210.75" y="322.911548"/>
  <use xlink:href="#glyph0-7" x="216" y="322.911548"/>
  <use xlink:href="#glyph0-32" x="220.5" y="322.911548"/>
  <use xlink:href="#glyph0-12" x="223.5" y="322.911548"/>
  <use xlink:href="#glyph0-35" x="226.5" y="322.911548"/>
  <use xlink:href="#glyph0-9" x="234" y="322.911548"/>
  <use xlink:href="#glyph0-3" x="237.75" y="322.911548"/>
  <use xlink:href="#glyph0-6" x="240" y="322.911548"/>
  <use xlink:href="#glyph0-4" x="243.75" y="322.911548"/>
  <use xlink:href="#glyph0-7" x="249" y="322.911548"/>
  <use xlink:href="#glyph0-32" x="253.5" y="322.911548"/>
  <use xlink:href="#glyph0-12" x="256.5" y="322.911548"/>
  <use xlink:href="#glyph0-11" x="259.5" y="322.911548"/>
  <use xlink:href="#glyph0-10" x="265.5" y="322.911548"/>
  <use xlink:href="#glyph0-6" x="270.75" y="322.911548"/>
  <use xlink:href="#glyph0-10" x="274.5" y="322.911548"/>
  <use xlink:href="#glyph0-12" x="279.75" y="322.911548"/>
  <use xlink:href="#glyph0-17" x="282.75" y="322.911548"/>
  <use xlink:href="#glyph0-10" x="291.75" y="322.911548"/>
  <use xlink:href="#glyph0-26" x="297" y="322.911548"/>
  <use xlink:href="#glyph0-26" x="303" y="322.911548"/>
  <use xlink:href="#glyph0-3" x="309" y="322.911548"/>
  <use xlink:href="#glyph0-5" x="311.25" y="322.911548"/>
  <use xlink:href="#glyph0-29" x="317.25" y="322.911548"/>
</g>
<path style="fill:none;stroke-width:1.5;stroke-linecap:butt;stroke-linejoin:miter;stroke:rgb(45.09804%,44.705883%,42.352942%);stroke-opacity:1;stroke-miterlimit:4;" d="M 340 444.000658 L 340 465.998605 " transform="matrix(0.75,0,0,0.750958,0,0)"/>
<g style="fill:rgb(23.921569%,23.921569%,22.745098%);fill-opacity:1;">
  <use xlink:href="#glyph0-18" x="30" y="373.977954"/>
  <use xlink:href="#glyph0-6" x="36" y="373.977954"/>
  <use xlink:href="#glyph0-16" x="39.75" y="373.977954"/>
  <use xlink:href="#glyph0-9" x="45" y="373.977954"/>
  <use xlink:href="#glyph0-10" x="48.75" y="373.977954"/>
  <use xlink:href="#glyph0-29" x="54" y="373.977954"/>
  <use xlink:href="#glyph0-4" x="60" y="373.977954"/>
</g>
<path style="fill-rule:nonzero;fill:rgb(98.039216%,92.54902%,90.588236%);fill-opacity:1;stroke-width:0.5;stroke-linecap:butt;stroke-linejoin:miter;stroke:rgb(60.000002%,23.529412%,11.372549%);stroke-opacity:1;stroke-miterlimit:4;" d="M 238 468.001256 L 442 468.001256 C 446.416667 468.001256 450 471.580018 450 476.001455 L 450 504.002152 C 450 508.418387 446.416667 512.002352 442 512.002352 L 238 512.002352 C 233.583333 512.002352 230 508.418387 230 504.002152 L 230 476.001455 C 230 471.580018 233.583333 468.001256 238 468.001256 Z M 238 468.001256 " transform="matrix(0.75,0,0,0.750958,0,0)"/>
<g style="fill:rgb(44.313726%,16.862746%,7.450981%);fill-opacity:1;">
  <use xlink:href="#glyph1-13" x="218.25" y="367.969723"/>
  <use xlink:href="#glyph1-23" x="225" y="367.969723"/>
  <use xlink:href="#glyph1-24" x="233.25" y="367.969723"/>
  <use xlink:href="#glyph1-5" x="239.25" y="367.969723"/>
  <use xlink:href="#glyph1-25" x="242.25" y="367.969723"/>
  <use xlink:href="#glyph1-19" x="249" y="367.969723"/>
  <use xlink:href="#glyph1-11" x="255.75" y="367.969723"/>
  <use xlink:href="#glyph1-19" x="259.5" y="367.969723"/>
  <use xlink:href="#glyph1-26" x="266.25" y="367.969723"/>
  <use xlink:href="#glyph1-19" x="273" y="367.969723"/>
  <use xlink:href="#glyph1-17" x="279.75" y="367.969723"/>
  <use xlink:href="#glyph1-9" x="285" y="367.969723"/>
</g>
</g>
</svg>
